<svg xmlns="http://www.w3.org/2000/svg" xmlns:xlink="http://www.w3.org/1999/xlink" contentStyleType="text/css" height="775px" preserveAspectRatio="none" style="width:2075px;height:775px;background:#FFFFFF;" version="1.1" viewBox="0 0 2075 775" width="2075px" zoomAndPan="magnify"><defs/><g><!--cluster UserService--><g id="cluster_UserService"><path d="M8.5,151 L103.8018,151 A3.75,3.75 0 0 1 106.3018,153.5 L113.3018,173.2969 L321.26,173.2969 A2.5,2.5 0 0 1 323.76,175.7969 L323.76,380.5 A2.5,2.5 0 0 1 321.26,383 L8.5,383 A2.5,2.5 0 0 1 6,380.5 L6,153.5 A2.5,2.5 0 0 1 8.5,151 " fill="none" style="stroke:#000000;stroke-width:1.5;"/><line style="stroke:#000000;stroke-width:1.5;" x1="6" x2="113.3018" y1="173.2969" y2="173.2969"/><text fill="#000000" font-family="sans-serif" font-size="14" font-weight="bold" lengthAdjust="spacing" textLength="94.3018" x="10" y="165.9951">UserService</text></g><!--cluster PlayerService--><g id="cluster_PlayerService"><path d="M474.15,48 L583.3834,48 A3.75,3.75 0 0 1 585.8834,50.5 L592.8834,70.2969 L717.52,70.2969 A2.5,2.5 0 0 1 720.02,72.7969 L720.02,261.5 A2.5,2.5 0 0 1 717.52,264 L474.15,264 A2.5,2.5 0 0 1 471.65,261.5 L471.65,50.5 A2.5,2.5 0 0 1 474.15,48 " fill="none" style="stroke:#000000;stroke-width:1.5;"/><line style="stroke:#000000;stroke-width:1.5;" x1="471.65" x2="592.8834" y1="70.2969" y2="70.2969"/><text fill="#000000" font-family="sans-serif" font-size="14" font-weight="bold" lengthAdjust="spacing" textLength="108.2334" x="475.65" y="62.9951">PlayerService</text></g><!--cluster CoachService--><g id="cluster_CoachService"><path d="M473.26,304 L580.0666,304 A3.75,3.75 0 0 1 582.5666,306.5 L589.5666,326.2969 L718.42,326.2969 A2.5,2.5 0 0 1 720.92,328.7969 L720.92,517.5 A2.5,2.5 0 0 1 718.42,520 L473.26,520 A2.5,2.5 0 0 1 470.76,517.5 L470.76,306.5 A2.5,2.5 0 0 1 473.26,304 " fill="none" style="stroke:#000000;stroke-width:1.5;"/><line style="stroke:#000000;stroke-width:1.5;" x1="470.76" x2="589.5666" y1="326.2969" y2="326.2969"/><text fill="#000000" font-family="sans-serif" font-size="14" font-weight="bold" lengthAdjust="spacing" textLength="105.8066" x="474.76" y="318.9951">CoachService</text></g><!--cluster TrainingSessionService--><g id="cluster_TrainingSessionService"><path d="M1275.98,48 L1461.2632,48 A3.75,3.75 0 0 1 1463.7632,50.5 L1470.7632,70.2969 L1490.6,70.2969 A2.5,2.5 0 0 1 1493.1,72.7969 L1493.1,458.5 A2.5,2.5 0 0 1 1490.6,461 L1275.98,461 A2.5,2.5 0 0 1 1273.48,458.5 L1273.48,50.5 A2.5,2.5 0 0 1 1275.98,48 " fill="none" style="stroke:#000000;stroke-width:1.5;"/><line style="stroke:#000000;stroke-width:1.5;" x1="1273.48" x2="1470.7632" y1="70.2969" y2="70.2969"/><text fill="#000000" font-family="sans-serif" font-size="14" font-weight="bold" lengthAdjust="spacing" textLength="184.2832" x="1277.48" y="62.9951">TrainingSessionService</text></g><!--cluster PerformanceAnalysisService--><g id="cluster_PerformanceAnalysisService"><path d="M1656.6,6 L1882.5092,6 A3.75,3.75 0 0 1 1885.0092,8.5 L1892.0092,28.2969 L2066,28.2969 A2.5,2.5 0 0 1 2068.5,30.7969 L2068.5,383.5 A2.5,2.5 0 0 1 2066,386 L1656.6,386 A2.5,2.5 0 0 1 1654.1,383.5 L1654.1,8.5 A2.5,2.5 0 0 1 1656.6,6 " fill="none" style="stroke:#000000;stroke-width:1.5;"/><line style="stroke:#000000;stroke-width:1.5;" x1="1654.1" x2="1892.0092" y1="28.2969" y2="28.2969"/><text fill="#000000" font-family="sans-serif" font-size="14" font-weight="bold" lengthAdjust="spacing" textLength="224.9092" x="1658.1" y="20.9951">PerformanceAnalysisService</text></g><!--cluster TeamService--><g id="cluster_TeamService"><path d="M894.26,48 L996.5413,48 A3.75,3.75 0 0 1 999.0413,50.5 L1006.0413,70.2969 L1114.15,70.2969 A2.5,2.5 0 0 1 1116.65,72.7969 L1116.65,377.5 A2.5,2.5 0 0 1 1114.15,380 L894.26,380 A2.5,2.5 0 0 1 891.76,377.5 L891.76,50.5 A2.5,2.5 0 0 1 894.26,48 " fill="none" style="stroke:#000000;stroke-width:1.5;"/><line style="stroke:#000000;stroke-width:1.5;" x1="891.76" x2="1006.0413" y1="70.2969" y2="70.2969"/><text fill="#000000" font-family="sans-serif" font-size="14" font-weight="bold" lengthAdjust="spacing" textLength="101.2813" x="895.76" y="62.9951">TeamService</text></g><!--cluster FeedbackService--><g id="cluster_FeedbackService"><path d="M888.42,420 L1023.2745,420 A3.75,3.75 0 0 1 1025.7745,422.5 L1032.7745,442.2969 L1119.98,442.2969 A2.5,2.5 0 0 1 1122.48,444.7969 L1122.48,765.5 A2.5,2.5 0 0 1 1119.98,768 L888.42,768 A2.5,2.5 0 0 1 885.92,765.5 L885.92,422.5 A2.5,2.5 0 0 1 888.42,420 " fill="none" style="stroke:#000000;stroke-width:1.5;"/><line style="stroke:#000000;stroke-width:1.5;" x1="885.92" x2="1032.7745" y1="442.2969" y2="442.2969"/><text fill="#000000" font-family="sans-serif" font-size="14" font-weight="bold" lengthAdjust="spacing" textLength="133.8545" x="889.92" y="434.9951">FeedbackService</text></g><!--class User--><g id="elem_User"><rect codeLine="3" fill="#F1F1F1" height="145.7813" id="User" rx="2.5" ry="2.5" style="stroke:#181818;stroke-width:0.5;" width="269.7559" x="30" y="213.11"/><ellipse cx="144.6729" cy="229.11" fill="#ADD1B2" rx="11" ry="11" style="stroke:#181818;stroke-width:1.0;"/><path d="M147.6416,234.7506 Q147.0635,235.0475 146.4229,235.1881 Q145.7822,235.3444 145.0791,235.3444 Q142.5791,235.3444 141.251,233.7038 Q139.9385,232.0475 139.9385,228.9225 Q139.9385,225.7975 141.251,224.1413 Q142.5791,222.485 145.0791,222.485 Q145.7822,222.485 146.4229,222.6413 Q147.0791,222.7975 147.6416,223.0944 L147.6416,225.8131 Q147.0166,225.235 146.4229,224.9694 Q145.8291,224.6881 145.2041,224.6881 Q143.8604,224.6881 143.1729,225.7663 Q142.4854,226.8288 142.4854,228.9225 Q142.4854,231.0163 143.1729,232.0944 Q143.8604,233.1569 145.2041,233.1569 Q145.8291,233.1569 146.4229,232.8913 Q147.0166,232.61 147.6416,232.0319 L147.6416,234.7506 Z " fill="#000000"/><text fill="#000000" font-family="sans-serif" font-size="14" lengthAdjust="spacing" textLength="31.9102" x="165.1729" y="233.9567">User</text><line style="stroke:#181818;stroke-width:0.5;" x1="31" x2="298.7559" y1="245.11" y2="245.11"/><ellipse cx="41" cy="258.7584" fill="none" rx="3" ry="3" style="stroke:#038048;stroke-width:1.0;"/><text fill="#000000" font-family="sans-serif" font-size="14" lengthAdjust="spacing" textLength="88.1221" x="50" y="262.1051">userId: UUID</text><ellipse cx="41" cy="275.0553" fill="none" rx="3" ry="3" style="stroke:#038048;stroke-width:1.0;"/><text fill="#000000" font-family="sans-serif" font-size="14" lengthAdjust="spacing" textLength="121.1875" x="50" y="278.402">username: String</text><ellipse cx="41" cy="291.3522" fill="none" rx="3" ry="3" style="stroke:#038048;stroke-width:1.0;"/><text fill="#000000" font-family="sans-serif" font-size="14" lengthAdjust="spacing" textLength="117.6602" x="50" y="294.6989">password: String</text><ellipse cx="41" cy="307.6491" fill="none" rx="3" ry="3" style="stroke:#038048;stroke-width:1.0;"/><text fill="#000000" font-family="sans-serif" font-size="14" lengthAdjust="spacing" textLength="89.5576" x="50" y="310.9957">email: String</text><ellipse cx="41" cy="323.9459" fill="none" rx="3" ry="3" style="stroke:#038048;stroke-width:1.0;"/><text fill="#000000" font-family="sans-serif" font-size="14" lengthAdjust="spacing" textLength="94.7598" x="50" y="327.2926">phone: String</text><ellipse cx="41" cy="340.2428" fill="none" rx="3" ry="3" style="stroke:#038048;stroke-width:1.0;"/><text fill="#000000" font-family="sans-serif" font-size="14" lengthAdjust="spacing" textLength="243.7559" x="50" y="343.5895">role: Enum{Player, Coach, Admin}</text><line style="stroke:#181818;stroke-width:0.5;" x1="31" x2="298.7559" y1="350.8913" y2="350.8913"/></g><!--class Player--><g id="elem_Player"><rect codeLine="14" fill="#F1F1F1" height="129.4844" id="Player" rx="2.5" ry="2.5" style="stroke:#181818;stroke-width:0.5;" width="200.3643" x="495.65" y="110.26"/><ellipse cx="569.7994" cy="126.26" fill="#ADD1B2" rx="11" ry="11" style="stroke:#181818;stroke-width:1.0;"/><path d="M572.7682,131.9006 Q572.19,132.1975 571.5494,132.3381 Q570.9088,132.4944 570.2057,132.4944 Q567.7057,132.4944 566.3775,130.8538 Q565.065,129.1975 565.065,126.0725 Q565.065,122.9475 566.3775,121.2912 Q567.7057,119.635 570.2057,119.635 Q570.9088,119.635 571.5494,119.7912 Q572.2057,119.9475 572.7682,120.2444 L572.7682,122.9631 Q572.1432,122.385 571.5494,122.1194 Q570.9557,121.8381 570.3307,121.8381 Q568.9869,121.8381 568.2994,122.9162 Q567.6119,123.9787 567.6119,126.0725 Q567.6119,128.1663 568.2994,129.2444 Q568.9869,130.3069 570.3307,130.3069 Q570.9557,130.3069 571.5494,130.0413 Q572.1432,129.76 572.7682,129.1819 L572.7682,131.9006 Z " fill="#000000"/><text fill="#000000" font-family="sans-serif" font-size="14" lengthAdjust="spacing" textLength="43.5654" x="590.2994" y="131.1067">Player</text><line style="stroke:#181818;stroke-width:0.5;" x1="496.65" x2="695.0143" y1="142.26" y2="142.26"/><ellipse cx="506.65" cy="155.9084" fill="none" rx="3" ry="3" style="stroke:#038048;stroke-width:1.0;"/><text fill="#000000" font-family="sans-serif" font-size="14" lengthAdjust="spacing" textLength="101.5957" x="515.65" y="159.2551">playerId: UUID</text><ellipse cx="506.65" cy="172.2053" fill="none" rx="3" ry="3" style="stroke:#038048;stroke-width:1.0;"/><text fill="#000000" font-family="sans-serif" font-size="14" lengthAdjust="spacing" textLength="88.1221" x="515.65" y="175.552">userId: UUID</text><ellipse cx="506.65" cy="188.5022" fill="none" rx="3" ry="3" style="stroke:#038048;stroke-width:1.0;"/><text fill="#000000" font-family="sans-serif" font-size="14" lengthAdjust="spacing" textLength="86.9395" x="515.65" y="191.8489">sport: String</text><ellipse cx="506.65" cy="204.7991" fill="none" rx="3" ry="3" style="stroke:#038048;stroke-width:1.0;"/><text fill="#000000" font-family="sans-serif" font-size="14" lengthAdjust="spacing" textLength="93.9053" x="515.65" y="208.1457">teamId: UUID</text><ellipse cx="506.65" cy="221.0959" fill="none" rx="3" ry="3" style="stroke:#038048;stroke-width:1.0;"/><text fill="#000000" font-family="sans-serif" font-size="14" lengthAdjust="spacing" textLength="174.3643" x="515.65" y="224.4426">performanceMetrics: List</text><line style="stroke:#181818;stroke-width:0.5;" x1="496.65" x2="695.0143" y1="231.7444" y2="231.7444"/></g><!--class Coach--><g id="elem_Coach"><rect codeLine="24" fill="#F1F1F1" height="129.4844" id="Coach" rx="2.5" ry="2.5" style="stroke:#181818;stroke-width:0.5;" width="202.1621" x="494.76" y="366.26"/><ellipse cx="569.8459" cy="382.26" fill="#ADD1B2" rx="11" ry="11" style="stroke:#181818;stroke-width:1.0;"/><path d="M572.8147,387.9006 Q572.2366,388.1975 571.5959,388.3381 Q570.9553,388.4944 570.2522,388.4944 Q567.7522,388.4944 566.4241,386.8538 Q565.1116,385.1975 565.1116,382.0725 Q565.1116,378.9475 566.4241,377.2913 Q567.7522,375.635 570.2522,375.635 Q570.9553,375.635 571.5959,375.7913 Q572.2522,375.9475 572.8147,376.2444 L572.8147,378.9631 Q572.1897,378.385 571.5959,378.1194 Q571.0022,377.8381 570.3772,377.8381 Q569.0334,377.8381 568.3459,378.9163 Q567.6584,379.9788 567.6584,382.0725 Q567.6584,384.1663 568.3459,385.2444 Q569.0334,386.3069 570.3772,386.3069 Q571.0022,386.3069 571.5959,386.0413 Q572.1897,385.76 572.8147,385.1819 L572.8147,387.9006 Z " fill="#000000"/><text fill="#000000" font-family="sans-serif" font-size="14" lengthAdjust="spacing" textLength="43.4902" x="590.3459" y="387.1067">Coach</text><line style="stroke:#181818;stroke-width:0.5;" x1="495.76" x2="695.9221" y1="398.26" y2="398.26"/><ellipse cx="505.76" cy="411.9084" fill="none" rx="3" ry="3" style="stroke:#038048;stroke-width:1.0;"/><text fill="#000000" font-family="sans-serif" font-size="14" lengthAdjust="spacing" textLength="98.998" x="514.76" y="415.2551">coachId: UUID</text><ellipse cx="505.76" cy="428.2053" fill="none" rx="3" ry="3" style="stroke:#038048;stroke-width:1.0;"/><text fill="#000000" font-family="sans-serif" font-size="14" lengthAdjust="spacing" textLength="88.1221" x="514.76" y="431.552">userId: UUID</text><ellipse cx="505.76" cy="444.5022" fill="none" rx="3" ry="3" style="stroke:#038048;stroke-width:1.0;"/><text fill="#000000" font-family="sans-serif" font-size="14" lengthAdjust="spacing" textLength="86.9395" x="514.76" y="447.8489">sport: String</text><ellipse cx="505.76" cy="460.7991" fill="none" rx="3" ry="3" style="stroke:#038048;stroke-width:1.0;"/><text fill="#000000" font-family="sans-serif" font-size="14" lengthAdjust="spacing" textLength="149.1328" x="514.76" y="464.1457">teamIds: List&lt;UUID&gt;</text><ellipse cx="505.76" cy="477.0959" fill="none" rx="3" ry="3" style="stroke:#038048;stroke-width:1.0;"/><text fill="#000000" font-family="sans-serif" font-size="14" lengthAdjust="spacing" textLength="176.1621" x="514.76" y="480.4426">experienceYears: Integer</text><line style="stroke:#181818;stroke-width:0.5;" x1="495.76" x2="695.9221" y1="487.7444" y2="487.7444"/></g><!--class TrainingSession--><g id="elem_TrainingSession"><rect codeLine="34" fill="#F1F1F1" height="162.0781" id="TrainingSession" rx="2.5" ry="2.5" style="stroke:#181818;stroke-width:0.5;" width="154.8848" x="1305.85" y="274.96"/><ellipse cx="1326.3265" cy="290.96" fill="#ADD1B2" rx="11" ry="11" style="stroke:#181818;stroke-width:1.0;"/><path d="M1329.2952,296.6006 Q1328.7171,296.8975 1328.0765,297.0381 Q1327.4358,297.1944 1326.7327,297.1944 Q1324.2327,297.1944 1322.9046,295.5538 Q1321.5921,293.8975 1321.5921,290.7725 Q1321.5921,287.6475 1322.9046,285.9913 Q1324.2327,284.335 1326.7327,284.335 Q1327.4358,284.335 1328.0765,284.4913 Q1328.7327,284.6475 1329.2952,284.9444 L1329.2952,287.6631 Q1328.6702,287.085 1328.0765,286.8194 Q1327.4827,286.5381 1326.8577,286.5381 Q1325.514,286.5381 1324.8265,287.6163 Q1324.139,288.6788 1324.139,290.7725 Q1324.139,292.8663 1324.8265,293.9444 Q1325.514,295.0069 1326.8577,295.0069 Q1327.4827,295.0069 1328.0765,294.7413 Q1328.6702,294.46 1329.2952,293.8819 L1329.2952,296.6006 Z " fill="#000000"/><text fill="#000000" font-family="sans-serif" font-size="14" lengthAdjust="spacing" textLength="110.7148" x="1341.5435" y="295.8067">TrainingSession</text><line style="stroke:#181818;stroke-width:0.5;" x1="1306.85" x2="1459.7348" y1="306.96" y2="306.96"/><ellipse cx="1316.85" cy="320.6084" fill="none" rx="3" ry="3" style="stroke:#038048;stroke-width:1.0;"/><text fill="#000000" font-family="sans-serif" font-size="14" lengthAdjust="spacing" textLength="109.4092" x="1325.85" y="323.9551">sessionId: UUID</text><ellipse cx="1316.85" cy="336.9053" fill="none" rx="3" ry="3" style="stroke:#038048;stroke-width:1.0;"/><text fill="#000000" font-family="sans-serif" font-size="14" lengthAdjust="spacing" textLength="98.998" x="1325.85" y="340.252">coachId: UUID</text><ellipse cx="1316.85" cy="353.2022" fill="none" rx="3" ry="3" style="stroke:#038048;stroke-width:1.0;"/><text fill="#000000" font-family="sans-serif" font-size="14" lengthAdjust="spacing" textLength="93.9053" x="1325.85" y="356.5489">teamId: UUID</text><ellipse cx="1316.85" cy="369.4991" fill="none" rx="3" ry="3" style="stroke:#038048;stroke-width:1.0;"/><text fill="#000000" font-family="sans-serif" font-size="14" lengthAdjust="spacing" textLength="74.1973" x="1325.85" y="372.8457">date: Date</text><ellipse cx="1316.85" cy="385.7959" fill="none" rx="3" ry="3" style="stroke:#038048;stroke-width:1.0;"/><text fill="#000000" font-family="sans-serif" font-size="14" lengthAdjust="spacing" textLength="128.8848" x="1325.85" y="389.1426">duration: Duration</text><ellipse cx="1316.85" cy="402.0928" fill="none" rx="3" ry="3" style="stroke:#038048;stroke-width:1.0;"/><text fill="#000000" font-family="sans-serif" font-size="14" lengthAdjust="spacing" textLength="109.0811" x="1325.85" y="405.4395">videoUrl: String</text><ellipse cx="1316.85" cy="418.3897" fill="none" rx="3" ry="3" style="stroke:#038048;stroke-width:1.0;"/><text fill="#000000" font-family="sans-serif" font-size="14" lengthAdjust="spacing" textLength="108.6914" x="1325.85" y="421.7364">remarks: String</text><line style="stroke:#181818;stroke-width:0.5;" x1="1306.85" x2="1459.7348" y1="429.0381" y2="429.0381"/></g><!--class SessionMetrics--><g id="elem_SessionMetrics"><rect codeLine="44" fill="#F1F1F1" height="129.4844" id="SessionMetrics" rx="2.5" ry="2.5" style="stroke:#181818;stroke-width:0.5;" width="171.6191" x="1297.48" y="110.26"/><ellipse cx="1328.4031" cy="126.26" fill="#ADD1B2" rx="11" ry="11" style="stroke:#181818;stroke-width:1.0;"/><path d="M1331.3719,131.9006 Q1330.7938,132.1975 1330.1531,132.3381 Q1329.5125,132.4944 1328.8094,132.4944 Q1326.3094,132.4944 1324.9813,130.8538 Q1323.6688,129.1975 1323.6688,126.0725 Q1323.6688,122.9475 1324.9813,121.2912 Q1326.3094,119.635 1328.8094,119.635 Q1329.5125,119.635 1330.1531,119.7912 Q1330.8094,119.9475 1331.3719,120.2444 L1331.3719,122.9631 Q1330.7469,122.385 1330.1531,122.1194 Q1329.5594,121.8381 1328.9344,121.8381 Q1327.5906,121.8381 1326.9031,122.9162 Q1326.2156,123.9787 1326.2156,126.0725 Q1326.2156,128.1663 1326.9031,129.2444 Q1327.5906,130.3069 1328.9344,130.3069 Q1329.5594,130.3069 1330.1531,130.0413 Q1330.7469,129.76 1331.3719,129.1819 L1331.3719,131.9006 Z " fill="#000000"/><text fill="#000000" font-family="sans-serif" font-size="14" lengthAdjust="spacing" textLength="104.2344" x="1345.9416" y="131.1067">SessionMetrics</text><line style="stroke:#181818;stroke-width:0.5;" x1="1298.48" x2="1468.0991" y1="142.26" y2="142.26"/><ellipse cx="1308.48" cy="155.9084" fill="none" rx="3" ry="3" style="stroke:#038048;stroke-width:1.0;"/><text fill="#000000" font-family="sans-serif" font-size="14" lengthAdjust="spacing" textLength="102.6689" x="1317.48" y="159.2551">metricId: UUID</text><ellipse cx="1308.48" cy="172.2053" fill="none" rx="3" ry="3" style="stroke:#038048;stroke-width:1.0;"/><text fill="#000000" font-family="sans-serif" font-size="14" lengthAdjust="spacing" textLength="109.4092" x="1317.48" y="175.552">sessionId: UUID</text><ellipse cx="1308.48" cy="188.5022" fill="none" rx="3" ry="3" style="stroke:#038048;stroke-width:1.0;"/><text fill="#000000" font-family="sans-serif" font-size="14" lengthAdjust="spacing" textLength="137.334" x="1317.48" y="191.8489">metricName: String</text><ellipse cx="1308.48" cy="204.7991" fill="none" rx="3" ry="3" style="stroke:#038048;stroke-width:1.0;"/><text fill="#000000" font-family="sans-serif" font-size="14" lengthAdjust="spacing" textLength="128.3584" x="1317.48" y="208.1457">metricValue: Float</text><ellipse cx="1308.48" cy="221.0959" fill="none" rx="3" ry="3" style="stroke:#038048;stroke-width:1.0;"/><text fill="#000000" font-family="sans-serif" font-size="14" lengthAdjust="spacing" textLength="145.6191" x="1317.48" y="224.4426">standardValue: Float</text><line style="stroke:#181818;stroke-width:0.5;" x1="1298.48" x2="1468.0991" y1="231.7444" y2="231.7444"/></g><!--class PerformanceAnalysis--><g id="elem_PerformanceAnalysis"><rect codeLine="54" fill="#F1F1F1" height="145.7813" id="PerformanceAnalysis" rx="2.5" ry="2.5" style="stroke:#181818;stroke-width:0.5;" width="366.4023" x="1678.1" y="216.11"/><ellipse cx="1783.4794" cy="232.11" fill="#ADD1B2" rx="11" ry="11" style="stroke:#181818;stroke-width:1.0;"/><path d="M1786.4481,237.7506 Q1785.87,238.0475 1785.2294,238.1881 Q1784.5888,238.3444 1783.8856,238.3444 Q1781.3856,238.3444 1780.0575,236.7038 Q1778.745,235.0475 1778.745,231.9225 Q1778.745,228.7975 1780.0575,227.1413 Q1781.3856,225.485 1783.8856,225.485 Q1784.5888,225.485 1785.2294,225.6413 Q1785.8856,225.7975 1786.4481,226.0944 L1786.4481,228.8131 Q1785.8231,228.235 1785.2294,227.9694 Q1784.6356,227.6881 1784.0106,227.6881 Q1782.6669,227.6881 1781.9794,228.7663 Q1781.2919,229.8288 1781.2919,231.9225 Q1781.2919,234.0163 1781.9794,235.0944 Q1782.6669,236.1569 1784.0106,236.1569 Q1784.6356,236.1569 1785.2294,235.8913 Q1785.8231,235.61 1786.4481,235.0319 L1786.4481,237.7506 Z " fill="#000000"/><text fill="#000000" font-family="sans-serif" font-size="14" lengthAdjust="spacing" textLength="147.1436" x="1803.9794" y="236.9567">PerformanceAnalysis</text><line style="stroke:#181818;stroke-width:0.5;" x1="1679.1" x2="2043.5023" y1="248.11" y2="248.11"/><ellipse cx="1689.1" cy="261.7584" fill="none" rx="3" ry="3" style="stroke:#038048;stroke-width:1.0;"/><text fill="#000000" font-family="sans-serif" font-size="14" lengthAdjust="spacing" textLength="114.2695" x="1698.1" y="265.1051">analysisId: UUID</text><ellipse cx="1689.1" cy="278.0553" fill="none" rx="3" ry="3" style="stroke:#038048;stroke-width:1.0;"/><text fill="#000000" font-family="sans-serif" font-size="14" lengthAdjust="spacing" textLength="101.5957" x="1698.1" y="281.402">playerId: UUID</text><ellipse cx="1689.1" cy="294.3522" fill="none" rx="3" ry="3" style="stroke:#038048;stroke-width:1.0;"/><text fill="#000000" font-family="sans-serif" font-size="14" lengthAdjust="spacing" textLength="102.6689" x="1698.1" y="297.6989">metricId: UUID</text><ellipse cx="1689.1" cy="310.6491" fill="none" rx="3" ry="3" style="stroke:#038048;stroke-width:1.0;"/><text fill="#000000" font-family="sans-serif" font-size="14" lengthAdjust="spacing" textLength="140.5879" x="1698.1" y="313.9957">averageValue: Float</text><ellipse cx="1689.1" cy="326.9459" fill="none" rx="3" ry="3" style="stroke:#038048;stroke-width:1.0;"/><text fill="#000000" font-family="sans-serif" font-size="14" lengthAdjust="spacing" textLength="145.6191" x="1698.1" y="330.2926">standardValue: Float</text><ellipse cx="1689.1" cy="343.2428" fill="none" rx="3" ry="3" style="stroke:#038048;stroke-width:1.0;"/><text fill="#000000" font-family="sans-serif" font-size="14" lengthAdjust="spacing" textLength="340.4023" x="1698.1" y="346.5895">sportCategory: Enum{Indoor, Outdoor, Athletic}</text><line style="stroke:#181818;stroke-width:0.5;" x1="1679.1" x2="2043.5023" y1="353.8913" y2="353.8913"/></g><!--class ProgressReport--><g id="elem_ProgressReport"><rect codeLine="63" fill="#F1F1F1" height="113.1875" id="ProgressReport" rx="2.5" ry="2.5" style="stroke:#181818;stroke-width:0.5;" width="144.084" x="1789.26" y="68.41"/><ellipse cx="1806.2573" cy="84.41" fill="#ADD1B2" rx="11" ry="11" style="stroke:#181818;stroke-width:1.0;"/><path d="M1809.2261,90.0506 Q1808.6479,90.3475 1808.0073,90.4881 Q1807.3667,90.6444 1806.6636,90.6444 Q1804.1636,90.6444 1802.8354,89.0037 Q1801.5229,87.3475 1801.5229,84.2225 Q1801.5229,81.0975 1802.8354,79.4412 Q1804.1636,77.785 1806.6636,77.785 Q1807.3667,77.785 1808.0073,77.9412 Q1808.6636,78.0975 1809.2261,78.3944 L1809.2261,81.1131 Q1808.6011,80.535 1808.0073,80.2694 Q1807.4136,79.9881 1806.7886,79.9881 Q1805.4448,79.9881 1804.7573,81.0662 Q1804.0698,82.1287 1804.0698,84.2225 Q1804.0698,86.3162 1804.7573,87.3944 Q1805.4448,88.4569 1806.7886,88.4569 Q1807.4136,88.4569 1808.0073,88.1912 Q1808.6011,87.91 1809.2261,87.3319 L1809.2261,90.0506 Z " fill="#000000"/><text fill="#000000" font-family="sans-serif" font-size="14" lengthAdjust="spacing" textLength="107.6455" x="1820.7012" y="89.2567">ProgressReport</text><line style="stroke:#181818;stroke-width:0.5;" x1="1790.26" x2="1932.344" y1="100.41" y2="100.41"/><ellipse cx="1800.26" cy="114.0584" fill="none" rx="3" ry="3" style="stroke:#038048;stroke-width:1.0;"/><text fill="#000000" font-family="sans-serif" font-size="14" lengthAdjust="spacing" textLength="100.6523" x="1809.26" y="117.4051">reportId: UUID</text><ellipse cx="1800.26" cy="130.3553" fill="none" rx="3" ry="3" style="stroke:#038048;stroke-width:1.0;"/><text fill="#000000" font-family="sans-serif" font-size="14" lengthAdjust="spacing" textLength="101.5957" x="1809.26" y="133.702">playerId: UUID</text><ellipse cx="1800.26" cy="146.6522" fill="none" rx="3" ry="3" style="stroke:#038048;stroke-width:1.0;"/><text fill="#000000" font-family="sans-serif" font-size="14" lengthAdjust="spacing" textLength="115.2607" x="1809.26" y="149.9989">feedback: String</text><ellipse cx="1800.26" cy="162.9491" fill="none" rx="3" ry="3" style="stroke:#038048;stroke-width:1.0;"/><text fill="#000000" font-family="sans-serif" font-size="14" lengthAdjust="spacing" textLength="118.084" x="1809.26" y="166.2957">graphData: JSON</text><line style="stroke:#181818;stroke-width:0.5;" x1="1790.26" x2="1932.344" y1="173.5975" y2="173.5975"/></g><!--class Team--><g id="elem_Team"><rect codeLine="72" fill="#F1F1F1" height="129.4844" id="Team" rx="2.5" ry="2.5" style="stroke:#181818;stroke-width:0.5;" width="176.8896" x="915.76" y="226.26"/><ellipse cx="980.2639" cy="242.26" fill="#ADD1B2" rx="11" ry="11" style="stroke:#181818;stroke-width:1.0;"/><path d="M983.2327,247.9006 Q982.6545,248.1975 982.0139,248.3381 Q981.3733,248.4944 980.6702,248.4944 Q978.1702,248.4944 976.842,246.8538 Q975.5295,245.1975 975.5295,242.0725 Q975.5295,238.9475 976.842,237.2913 Q978.1702,235.635 980.6702,235.635 Q981.3733,235.635 982.0139,235.7913 Q982.6702,235.9475 983.2327,236.2444 L983.2327,238.9631 Q982.6077,238.385 982.0139,238.1194 Q981.4202,237.8381 980.7952,237.8381 Q979.4514,237.8381 978.7639,238.9163 Q978.0764,239.9788 978.0764,242.0725 Q978.0764,244.1663 978.7639,245.2444 Q979.4514,246.3069 980.7952,246.3069 Q981.4202,246.3069 982.0139,246.0413 Q982.6077,245.76 983.2327,245.1819 L983.2327,247.9006 Z " fill="#000000"/><text fill="#000000" font-family="sans-serif" font-size="14" lengthAdjust="spacing" textLength="39.3818" x="1000.7639" y="247.1067">Team</text><line style="stroke:#181818;stroke-width:0.5;" x1="916.76" x2="1091.6496" y1="258.26" y2="258.26"/><ellipse cx="926.76" cy="271.9084" fill="none" rx="3" ry="3" style="stroke:#038048;stroke-width:1.0;"/><text fill="#000000" font-family="sans-serif" font-size="14" lengthAdjust="spacing" textLength="93.9053" x="935.76" y="275.2551">teamId: UUID</text><ellipse cx="926.76" cy="288.2053" fill="none" rx="3" ry="3" style="stroke:#038048;stroke-width:1.0;"/><text fill="#000000" font-family="sans-serif" font-size="14" lengthAdjust="spacing" textLength="98.998" x="935.76" y="291.552">coachId: UUID</text><ellipse cx="926.76" cy="304.5022" fill="none" rx="3" ry="3" style="stroke:#038048;stroke-width:1.0;"/><text fill="#000000" font-family="sans-serif" font-size="14" lengthAdjust="spacing" textLength="150.8896" x="935.76" y="307.8489">sportCategory: String</text><ellipse cx="926.76" cy="320.7991" fill="none" rx="3" ry="3" style="stroke:#038048;stroke-width:1.0;"/><text fill="#000000" font-family="sans-serif" font-size="14" lengthAdjust="spacing" textLength="90.6514" x="935.76" y="324.1457">name: String</text><ellipse cx="926.76" cy="337.0959" fill="none" rx="3" ry="3" style="stroke:#038048;stroke-width:1.0;"/><text fill="#000000" font-family="sans-serif" font-size="14" lengthAdjust="spacing" textLength="147.9775" x="935.76" y="340.4426">teamCaptainId: UUID</text><line style="stroke:#181818;stroke-width:0.5;" x1="916.76" x2="1091.6496" y1="347.7444" y2="347.7444"/></g><!--class TeamMember--><g id="elem_TeamMember"><rect codeLine="80" fill="#F1F1F1" height="80.5938" id="TeamMember" rx="2.5" ry="2.5" style="stroke:#181818;stroke-width:0.5;" width="128.9678" x="939.72" y="110.7"/><ellipse cx="954.72" cy="126.7" fill="#ADD1B2" rx="11" ry="11" style="stroke:#181818;stroke-width:1.0;"/><path d="M957.6888,132.3406 Q957.1106,132.6375 956.47,132.7781 Q955.8294,132.9344 955.1263,132.9344 Q952.6263,132.9344 951.2981,131.2938 Q949.9856,129.6375 949.9856,126.5125 Q949.9856,123.3875 951.2981,121.7313 Q952.6263,120.075 955.1263,120.075 Q955.8294,120.075 956.47,120.2313 Q957.1263,120.3875 957.6888,120.6844 L957.6888,123.4031 Q957.0638,122.825 956.47,122.5594 Q955.8763,122.2781 955.2513,122.2781 Q953.9075,122.2781 953.22,123.3563 Q952.5325,124.4188 952.5325,126.5125 Q952.5325,128.6063 953.22,129.6844 Q953.9075,130.7469 955.2513,130.7469 Q955.8763,130.7469 956.47,130.4813 Q957.0638,130.2 957.6888,129.6219 L957.6888,132.3406 Z " fill="#000000"/><text fill="#000000" font-family="sans-serif" font-size="14" lengthAdjust="spacing" textLength="96.9678" x="968.72" y="131.5467">TeamMember</text><line style="stroke:#181818;stroke-width:0.5;" x1="940.72" x2="1067.6878" y1="142.7" y2="142.7"/><ellipse cx="950.72" cy="156.3484" fill="none" rx="3" ry="3" style="stroke:#038048;stroke-width:1.0;"/><text fill="#000000" font-family="sans-serif" font-size="14" lengthAdjust="spacing" textLength="101.5957" x="959.72" y="159.6951">playerId: UUID</text><ellipse cx="950.72" cy="172.6453" fill="none" rx="3" ry="3" style="stroke:#038048;stroke-width:1.0;"/><text fill="#000000" font-family="sans-serif" font-size="14" lengthAdjust="spacing" textLength="93.9053" x="959.72" y="175.992">teamId: UUID</text><line style="stroke:#181818;stroke-width:0.5;" x1="940.72" x2="1067.6878" y1="183.2938" y2="183.2938"/></g><!--class Feedback--><g id="elem_Feedback"><rect codeLine="87" fill="#F1F1F1" height="129.4844" id="Feedback" rx="2.5" ry="2.5" style="stroke:#181818;stroke-width:0.5;" width="188.5654" x="909.92" y="614.26"/><ellipse cx="966.2345" cy="630.26" fill="#ADD1B2" rx="11" ry="11" style="stroke:#181818;stroke-width:1.0;"/><path d="M969.2032,635.9006 Q968.6251,636.1975 967.9845,636.3381 Q967.3438,636.4944 966.6407,636.4944 Q964.1407,636.4944 962.8126,634.8538 Q961.5001,633.1975 961.5001,630.0725 Q961.5001,626.9475 962.8126,625.2913 Q964.1407,623.635 966.6407,623.635 Q967.3438,623.635 967.9845,623.7913 Q968.6407,623.9475 969.2032,624.2444 L969.2032,626.9631 Q968.5782,626.385 967.9845,626.1194 Q967.3907,625.8381 966.7657,625.8381 Q965.422,625.8381 964.7345,626.9163 Q964.047,627.9788 964.047,630.0725 Q964.047,632.1663 964.7345,633.2444 Q965.422,634.3069 966.7657,634.3069 Q967.3907,634.3069 967.9845,634.0413 Q968.5782,633.76 969.2032,633.1819 L969.2032,635.9006 Z " fill="#000000"/><text fill="#000000" font-family="sans-serif" font-size="14" lengthAdjust="spacing" textLength="67.4365" x="986.7345" y="635.1067">Feedback</text><line style="stroke:#181818;stroke-width:0.5;" x1="910.92" x2="1097.4854" y1="646.26" y2="646.26"/><ellipse cx="920.92" cy="659.9084" fill="none" rx="3" ry="3" style="stroke:#038048;stroke-width:1.0;"/><text fill="#000000" font-family="sans-serif" font-size="14" lengthAdjust="spacing" textLength="121.8984" x="929.92" y="663.2551">feedbackId: UUID</text><ellipse cx="920.92" cy="676.2053" fill="none" rx="3" ry="3" style="stroke:#038048;stroke-width:1.0;"/><text fill="#000000" font-family="sans-serif" font-size="14" lengthAdjust="spacing" textLength="118.5625" x="929.92" y="679.552">reviewerId: UUID</text><ellipse cx="920.92" cy="692.5022" fill="none" rx="3" ry="3" style="stroke:#038048;stroke-width:1.0;"/><text fill="#000000" font-family="sans-serif" font-size="14" lengthAdjust="spacing" textLength="162.5654" x="929.92" y="695.8489">reviewedEntityId: UUID</text><ellipse cx="920.92" cy="708.7991" fill="none" rx="3" ry="3" style="stroke:#038048;stroke-width:1.0;"/><text fill="#000000" font-family="sans-serif" font-size="14" lengthAdjust="spacing" textLength="117.4619" x="929.92" y="712.1457">comment: String</text><ellipse cx="920.92" cy="725.0959" fill="none" rx="3" ry="3" style="stroke:#038048;stroke-width:1.0;"/><text fill="#000000" font-family="sans-serif" font-size="14" lengthAdjust="spacing" textLength="159.585" x="929.92" y="728.4426">isAnonymous: Boolean</text><line style="stroke:#181818;stroke-width:0.5;" x1="910.92" x2="1097.4854" y1="735.7444" y2="735.7444"/></g><!--class Rating--><g id="elem_Rating"><rect codeLine="95" fill="#F1F1F1" height="96.8906" id="Rating" rx="2.5" ry="2.5" style="stroke:#181818;stroke-width:0.5;" width="166.5195" x="920.94" y="482.55"/><ellipse cx="977.2271" cy="498.55" fill="#ADD1B2" rx="11" ry="11" style="stroke:#181818;stroke-width:1.0;"/><path d="M980.1959,504.1906 Q979.6177,504.4875 978.9771,504.6281 Q978.3365,504.7844 977.6334,504.7844 Q975.1334,504.7844 973.8052,503.1438 Q972.4927,501.4875 972.4927,498.3625 Q972.4927,495.2375 973.8052,493.5813 Q975.1334,491.925 977.6334,491.925 Q978.3365,491.925 978.9771,492.0813 Q979.6334,492.2375 980.1959,492.5344 L980.1959,495.2531 Q979.5709,494.675 978.9771,494.4094 Q978.3834,494.1281 977.7584,494.1281 Q976.4146,494.1281 975.7271,495.2063 Q975.0396,496.2688 975.0396,498.3625 Q975.0396,500.4563 975.7271,501.5344 Q976.4146,502.5969 977.7584,502.5969 Q978.3834,502.5969 978.9771,502.3313 Q979.5709,502.05 980.1959,501.4719 L980.1959,504.1906 Z " fill="#000000"/><text fill="#000000" font-family="sans-serif" font-size="14" lengthAdjust="spacing" textLength="45.4453" x="997.7271" y="503.3967">Rating</text><line style="stroke:#181818;stroke-width:0.5;" x1="921.94" x2="1086.4595" y1="514.55" y2="514.55"/><ellipse cx="931.94" cy="528.1984" fill="none" rx="3" ry="3" style="stroke:#038048;stroke-width:1.0;"/><text fill="#000000" font-family="sans-serif" font-size="14" lengthAdjust="spacing" textLength="99.0596" x="940.94" y="531.5451">ratingId: UUID</text><ellipse cx="931.94" cy="544.4953" fill="none" rx="3" ry="3" style="stroke:#038048;stroke-width:1.0;"/><text fill="#000000" font-family="sans-serif" font-size="14" lengthAdjust="spacing" textLength="101.5957" x="940.94" y="547.842">playerId: UUID</text><ellipse cx="931.94" cy="560.7922" fill="none" rx="3" ry="3" style="stroke:#038048;stroke-width:1.0;"/><text fill="#000000" font-family="sans-serif" font-size="14" lengthAdjust="spacing" textLength="140.5195" x="940.94" y="564.1389">ratingScore: Integer</text><line style="stroke:#181818;stroke-width:0.5;" x1="921.94" x2="1086.4595" y1="571.4406" y2="571.4406"/></g><!--link UserService to PlayerService--><g id="link_UserService_PlayerService"><path codeLine="103" d="M253.2081,171.2288 C256.5501,170.1709 260.4291,146.6578 263.8975,145.5725 C319.3925,128.2075 390.38,107.645 454.76,94 C458.5413,93.1981 462.3874,92.423 466.2762,91.6744 C467.2484,91.4872 468.2233,91.3017 469.2005,91.1179 C469.689,91.026 470.1782,90.9345 470.6679,90.8434 C470.9128,90.7978 465.2578,91.8438 465.503,91.7984 " fill="none" id="UserService-PlayerService" style="stroke:#181818;stroke-width:1.0;stroke-dasharray:7.0,7.0;"/><polygon fill="#181818" points="247.4914,173.0507,257.2811,174.1289,252.2553,171.5324,254.8518,166.5067,247.4914,173.0507" style="stroke:#181818;stroke-width:1.0;"/><polygon fill="#181818" points="471.4029,90.707,461.8254,88.4109,466.4863,91.6165,463.2806,96.2774,471.4029,90.707" style="stroke:#181818;stroke-width:1.0;"/><text fill="#000000" font-family="sans-serif" font-size="13" lengthAdjust="spacing" textLength="97.7412" x="348.76" y="94.0669">links via userId</text></g><!--link UserService to CoachService--><g id="link_UserService_CoachService"><path codeLine="104" d="M329.824,194.1033 C334.56,195.3068 335.1856,195.6038 339.76,197 C347.355,199.32 410.19,232.3175 471.5875,264.9838 C486.9369,273.1503 502.1964,281.2962 516.4805,288.9368 C523.6226,292.7571 530.5208,296.4512 537.0644,299.9583 C538.7003,300.8351 540.314,301.7002 541.9039,302.5527 C542.6988,302.9789 538.2002,300.5662 538.983,300.986 " fill="none" id="UserService-CoachService" style="stroke:#181818;stroke-width:1.0;stroke-dasharray:7.0,7.0;"/><polygon fill="#181818" points="324.0009,192.6569,331.7713,198.7086,328.8535,193.8623,333.6998,190.9445,324.0009,192.6569" style="stroke:#181818;stroke-width:1.0;"/><polygon fill="#181818" points="544.2706,303.8218,538.2298,296.0431,539.8643,301.4587,534.4487,303.0932,544.2706,303.8218" style="stroke:#181818;stroke-width:1.0;"/><text fill="#000000" font-family="sans-serif" font-size="13" lengthAdjust="spacing" textLength="97.7412" x="348.76" y="198.0669">links via userId</text></g><!--link PlayerService to TeamService--><g id="link_PlayerService_TeamService"><path codeLine="105" d="M728.1549,75 C751.6437,75 775.0325,75 800.035,75 C825.0375,75 850.0397,75 873.5272,75 C879.3991,75 879.1763,75 884.8351,75 " fill="none" id="PlayerService-TeamService" style="stroke:#181818;stroke-width:1.0;stroke-dasharray:7.0,7.0;"/><polygon fill="#181818" points="722.1549,75,731.1549,79,727.1549,75,731.1549,71,722.1549,75" style="stroke:#181818;stroke-width:1.0;"/><polygon fill="#181818" points="890.8351,75,881.8351,71,885.8351,75,881.8351,79,890.8351,75" style="stroke:#181818;stroke-width:1.0;"/><text fill="#000000" font-family="sans-serif" font-size="13" lengthAdjust="spacing" textLength="68.2627" x="769.42" y="71.0669">belongs to</text></g><!--link CoachService to TeamService--><g id="link_CoachService_TeamService"><path codeLine="106" d="M727.8363,329.0061 C735.0483,327.919 739.0893,327.0704 746.3649,325.515 C760.9163,322.4043 775.4553,318.2888 789.4237,312.8948 C817.3606,302.1069 843.015,286.205 861.92,263 C873.72,248.51 857.39,108.87 869.92,95 C874.8612,89.5313 880.6044,85.1055 886.8772,81.5488 C888.4454,80.6596 884.6386,82.4232 886.2688,81.64 " fill="none" id="CoachService-TeamService" style="stroke:#181818;stroke-width:1.0;stroke-dasharray:7.0,7.0;"/><polygon fill="#181818" points="721.8973,329.8592,731.3746,332.5389,726.8465,329.1483,730.2371,324.6202,721.8973,329.8592" style="stroke:#181818;stroke-width:1.0;"/><polygon fill="#181818" points="891.6769,79.0415,881.8324,79.3338,887.1701,81.2069,885.297,86.5446,891.6769,79.0415" style="stroke:#181818;stroke-width:1.0;"/><text fill="#000000" font-family="sans-serif" font-size="13" lengthAdjust="spacing" textLength="59.8584" x="773.92" y="259.0669">manages</text></g><!--link TeamService to TrainingSessionService--><g id="link_TeamService_TrainingSessionService"><path codeLine="107" d="M1123.456,75 C1126.1339,75 1122.8366,75 1125.5612,75 C1147.3579,75 1170.5597,75 1193.7613,75 C1216.9628,75 1240.1641,75 1261.9599,75 C1264.6844,75 1267.3869,75 1270.0647,75 C1270.7342,75 1271.4021,75 1272.0684,75 C1272.4016,75 1266.7343,75 1267.0667,75 " fill="none" id="TeamService-TrainingSessionService" style="stroke:#181818;stroke-width:1.0;stroke-dasharray:7.0,7.0;"/><polygon fill="#181818" points="1117.456,75,1126.456,79,1122.456,75,1126.456,71,1117.456,75" style="stroke:#181818;stroke-width:1.0;"/><polygon fill="#181818" points="1273.0667,75,1264.0667,71,1268.0667,75,1264.0667,79,1273.0667,75" style="stroke:#181818;stroke-width:1.0;"/><text fill="#000000" font-family="sans-serif" font-size="13" lengthAdjust="spacing" textLength="101.2515" x="1147.48" y="71.0669">associated with</text></g><!--link TrainingSessionService to PerformanceAnalysisService--><g id="link_TrainingSessionService_PerformanceAnalysisService"><path codeLine="108" d="M1499.8259,86.7016 C1503.1573,86.3986 1506.752,63.7754 1510.1532,63.4666 C1523.7579,62.2314 1537.8816,60.9531 1552.2092,59.6619 C1580.8644,57.0794 1610.335,54.445 1638.1,52 C1641.1372,51.7325 1644.1978,51.4635 1647.2775,51.1933 C1648.8173,51.0582 1650.3619,50.9228 1651.9108,50.7871 C1652.298,50.7532 1646.7083,51.2425 1647.0961,51.2086 " fill="none" id="TrainingSessionService-PerformanceAnalysisService" style="stroke:#181818;stroke-width:1.0;stroke-dasharray:7.0,7.0;"/><polygon fill="#181818" points="1493.8506,87.2454,1503.1761,90.4132,1498.83,86.7922,1502.451,82.4461,1493.8506,87.2454" style="stroke:#181818;stroke-width:1.0;"/><polygon fill="#181818" points="1653.0732,50.6854,1643.7587,47.4854,1648.0923,51.1214,1644.4563,55.455,1653.0732,50.6854" style="stroke:#181818;stroke-width:1.0;"/><text fill="#000000" font-family="sans-serif" font-size="13" lengthAdjust="spacing" textLength="111.2998" x="1518.1" y="50.0669">provides data for</text></g><!--link PlayerService to PerformanceAnalysisService--><g id="link_PlayerService_PerformanceAnalysisService"><path codeLine="109" d="M726.6719,74.703 C727.725,74.5526 725.2099,52.6241 726.2602,52.4765 C728.3608,52.1815 730.4551,51.8924 732.5404,51.6099 C736.7109,51.0448 740.845,50.5062 744.92,50 C800.23,43.13 814.25,42.7 869.92,40 C1207.42,23.65 1292.22,26.06 1630.1,29 C1636.3956,29.055 1642.7879,29.1184 1649.2412,29.1888 C1650.8545,29.2065 1646.472,29.1561 1648.0924,29.1746 " fill="none" id="PlayerService-PerformanceAnalysisService" style="stroke:#181818;stroke-width:1.0;stroke-dasharray:7.0,7.0;"/><polygon fill="#181818" points="720.7336,75.5608,730.213,78.2329,725.6822,74.8459,729.0692,70.3151,720.7336,75.5608" style="stroke:#181818;stroke-width:1.0;"/><polygon fill="#181818" points="1654.092,29.243,1645.1382,25.1406,1649.0923,29.186,1645.0469,33.1401,1654.092,29.243" style="stroke:#181818;stroke-width:1.0;"/><text fill="#000000" font-family="sans-serif" font-size="13" lengthAdjust="spacing" textLength="74.5342" x="1160.98" y="24.0669">analyzed in</text></g><!--link PlayerService to FeedbackService--><g id="link_PlayerService_FeedbackService"><path codeLine="110" d="M725.9176,88.5165 C727.7516,89.225 724.6484,88.0975 726.4424,88.8769 C730.0304,90.4358 733.5319,92.1394 736.92,94 C755.79,104.36 853.91,222.02 861.92,242 C872.69,268.86 854.55,347.48 869.92,372 C878.8025,386.1725 891.385,397.9119 905.3084,407.5573 C908.7893,409.9687 912.354,412.2492 915.9656,414.4041 C917.7714,415.4816 919.5889,416.5277 921.4136,417.543 C922.3259,418.0507 923.2401,418.5507 924.1554,419.0431 C924.6131,419.2893 919.7675,416.7278 920.2257,416.9702 " fill="none" id="PlayerService-FeedbackService" style="stroke:#181818;stroke-width:1.0;stroke-dasharray:7.0,7.0;"/><polygon fill="#181818" points="720.3103,86.3816,727.2981,93.3221,724.9831,88.1606,730.1446,85.8456,720.3103,86.3816" style="stroke:#181818;stroke-width:1.0;"/><polygon fill="#181818" points="925.5292,419.776,919.4445,412.0316,921.1096,417.4378,915.7034,419.1029,925.5292,419.776" style="stroke:#181818;stroke-width:1.0;"/><text fill="#000000" font-family="sans-serif" font-size="13" lengthAdjust="spacing" textLength="115.3623" x="745.92" y="99.0669">gives feedback to</text></g><!--link CoachService to FeedbackService--><g id="link_CoachService_FeedbackService"><path codeLine="111" d="M726.9823,347.6379 C727.9545,347.8439 724.5111,347.1331 725.4779,347.3441 C729.3453,348.1884 733.1669,349.0731 736.92,350 C797.105,364.86 862.5525,388.59 913.5025,408.8588 C919.8713,411.3923 926.0135,413.8719 931.8906,416.2732 C934.8291,417.4739 932.1569,416.3618 934.9581,417.5204 " fill="none" id="CoachService-FeedbackService" style="stroke:#181818;stroke-width:1.0;stroke-dasharray:7.0,7.0;"/><polygon fill="#181818" points="721.109,346.4113,729.1013,352.1667,726.0034,347.4334,730.7366,344.3356,721.109,346.4113" style="stroke:#181818;stroke-width:1.0;"/><polygon fill="#181818" points="940.5026,419.8136,933.7147,412.6774,935.8822,417.9026,930.6571,420.0701,940.5026,419.8136" style="stroke:#181818;stroke-width:1.0;"/><text fill="#000000" font-family="sans-serif" font-size="13" lengthAdjust="spacing" textLength="115.3623" x="745.92" y="350.0669">gives feedback to</text></g><!--SRC=[hLRRZjem47tFLrYyzA6h_G2qMedkHQBgNWIbKXzDF2GMYHsD3PIk-FUEaspZaCcAIiq3WhdbdF6PCGLilF1MeCvoBvH6IBss9gbakfKPYCdA0Iu1zpg5YNXB13rf8PqJmT4QmlDvHx_dQYfMg_bztsfa2LEnzAXDrdagAdAmg8OUAAKkc8JS6gOEseAi3sPNlhqMyWXu9UwiJFChCLEbDgSwyfISaevJ4yUoQbmnhwgsyCo6LbTPz4EG7cGv3Au0DnPBQL9u0if8tLHyqyupa6jABEBQ4mDEW-6_u6tXt8IKs-XyVX5m3OJw9qYaeBdna04oiB-Zr8OgBy4vaXLBu2mcfk8Qqn3s24U-pKfwKiWzVKQs7SeWTBAttphVNYkmAsGaY2HDtBgUW-XsN5eExMd6LChQn1p06CKcuPcTdSRtGnOxSZuMLlgee9T6ILG3xzaCTDgR6LaSdNRyG0pZObgojJ7Y7fcRiKR8FI0X-qTIdOZlw7mpYyTs5yoDifPsmSlEDrzcFY_0w_GqFBLNj1dIEImW58hfOMsvdDm6GAsfnSCZor1MEMbGJiNNvSipDoiaNdv0o163ubK-CX9dlJc7nU_cy8OxMNaQp5x5NjS2h2ServUjom7eFld7jd5i0zwTyNlUEpry4y9Umu73q7hKW_7Q7xaMbYKOPXrgDpFM74kxezd_Okd6aMROa0Nj4PFrv5DRBfTF4xzCBGApLJ-91HJrhdAvhfnOWpy06D4sqINHNIrkhfKzcEjRqRlin5HC2cssJkor5CsLCE7puXk7J-jN_fiOwJZahQ6m9dFq9sEIz6gE9T2k2MmcIMplWjaR9UJH4TXKazALE6YVKpuVsdLcT0M6SXNQS14uGTU751GuIlZZElM6_4sWj1cjSAR-a9RfFRtxNUKVTE-Yt3y0]--></g></svg>