<svg xmlns="http://www.w3.org/2000/svg" xmlns:xlink="http://www.w3.org/1999/xlink" contentStyleType="text/css" height="499px" preserveAspectRatio="none" style="width:602px;height:499px;background:#FFFFFF;" version="1.1" viewBox="0 0 602 499" width="602px" zoomAndPan="magnify"><defs/><g><rect fill="#FFFFFF" height="71.2656" style="stroke:#181818;stroke-width:1.0;" width="10" x="359.5615" y="170.6953"/><rect fill="#FFFFFF" height="71.2656" style="stroke:#181818;stroke-width:1.0;" width="10" x="359.5615" y="329.3594"/><rect fill="#FFFFFF" height="29.1328" style="stroke:#181818;stroke-width:1.0;" width="10" x="536.8091" y="112.4297"/><rect fill="#FFFFFF" height="29.1328" style="stroke:#181818;stroke-width:1.0;" width="10" x="536.8091" y="271.0938"/><line style="stroke:#181818;stroke-width:0.5;stroke-dasharray:5.0,5.0;" x1="29" x2="29" y1="81.2969" y2="418.625"/><line style="stroke:#181818;stroke-width:0.5;stroke-dasharray:5.0,5.0;" x1="88.5654" x2="88.5654" y1="81.2969" y2="418.625"/><line style="stroke:#181818;stroke-width:0.5;stroke-dasharray:5.0,5.0;" x1="363.9727" x2="363.9727" y1="81.2969" y2="418.625"/><line style="stroke:#181818;stroke-width:0.5;stroke-dasharray:5.0,5.0;" x1="541.1558" x2="541.1558" y1="81.2969" y2="418.625"/><text fill="#000000" font-family="sans-serif" font-size="14" lengthAdjust="spacing" textLength="43.5654" x="5" y="77.9951">Player</text><ellipse cx="29.7827" cy="13.5" fill="#E2E2F0" rx="8" ry="8" style="stroke:#181818;stroke-width:0.5;"/><path d="M29.7827,21.5 L29.7827,48.5 M16.7827,29.5 L42.7827,29.5 M29.7827,48.5 L16.7827,63.5 M29.7827,48.5 L42.7827,63.5 " fill="none" style="stroke:#181818;stroke-width:0.5;"/><text fill="#000000" font-family="sans-serif" font-size="14" lengthAdjust="spacing" textLength="43.5654" x="5" y="430.6201">Player</text><ellipse cx="29.7827" cy="442.4219" fill="#E2E2F0" rx="8" ry="8" style="stroke:#181818;stroke-width:0.5;"/><path d="M29.7827,450.4219 L29.7827,477.4219 M16.7827,458.4219 L42.7827,458.4219 M29.7827,477.4219 L16.7827,492.4219 M29.7827,477.4219 L42.7827,492.4219 " fill="none" style="stroke:#181818;stroke-width:0.5;"/><text fill="#000000" font-family="sans-serif" font-size="14" lengthAdjust="spacing" textLength="43.4902" x="64.5654" y="77.9951">Coach</text><ellipse cx="89.3105" cy="13.5" fill="#E2E2F0" rx="8" ry="8" style="stroke:#181818;stroke-width:0.5;"/><path d="M89.3105,21.5 L89.3105,48.5 M76.3105,29.5 L102.3105,29.5 M89.3105,48.5 L76.3105,63.5 M89.3105,48.5 L102.3105,63.5 " fill="none" style="stroke:#181818;stroke-width:0.5;"/><text fill="#000000" font-family="sans-serif" font-size="14" lengthAdjust="spacing" textLength="43.4902" x="64.5654" y="430.6201">Coach</text><ellipse cx="89.3105" cy="442.4219" fill="#E2E2F0" rx="8" ry="8" style="stroke:#181818;stroke-width:0.5;"/><path d="M89.3105,450.4219 L89.3105,477.4219 M76.3105,458.4219 L102.3105,458.4219 M89.3105,477.4219 L76.3105,492.4219 M89.3105,477.4219 L102.3105,492.4219 " fill="none" style="stroke:#181818;stroke-width:0.5;"/><rect fill="#E2E2F0" height="30.2969" rx="2.5" ry="2.5" style="stroke:#181818;stroke-width:0.5;" width="133.1777" x="297.9727" y="50"/><text fill="#000000" font-family="sans-serif" font-size="14" lengthAdjust="spacing" textLength="119.1777" x="304.9727" y="69.9951">FeedbackService</text><rect fill="#E2E2F0" height="30.2969" rx="2.5" ry="2.5" style="stroke:#181818;stroke-width:0.5;" width="133.1777" x="297.9727" y="417.625"/><text fill="#000000" font-family="sans-serif" font-size="14" lengthAdjust="spacing" textLength="119.1777" x="304.9727" y="437.6201">FeedbackService</text><rect fill="#E2E2F0" height="30.2969" rx="2.5" ry="2.5" style="stroke:#181818;stroke-width:0.5;" width="109.3066" x="487.1558" y="50"/><text fill="#000000" font-family="sans-serif" font-size="14" lengthAdjust="spacing" textLength="95.3066" x="494.1558" y="69.9951">PlayerService</text><rect fill="#E2E2F0" height="30.2969" rx="2.5" ry="2.5" style="stroke:#181818;stroke-width:0.5;" width="109.3066" x="487.1558" y="417.625"/><text fill="#000000" font-family="sans-serif" font-size="14" lengthAdjust="spacing" textLength="95.3066" x="494.1558" y="437.6201">PlayerService</text><rect fill="#FFFFFF" height="71.2656" style="stroke:#181818;stroke-width:1.0;" width="10" x="359.5615" y="170.6953"/><rect fill="#FFFFFF" height="71.2656" style="stroke:#181818;stroke-width:1.0;" width="10" x="359.5615" y="329.3594"/><rect fill="#FFFFFF" height="29.1328" style="stroke:#181818;stroke-width:1.0;" width="10" x="536.8091" y="112.4297"/><rect fill="#FFFFFF" height="29.1328" style="stroke:#181818;stroke-width:1.0;" width="10" x="536.8091" y="271.0938"/><polygon fill="#181818" points="524.8091,108.4297,534.8091,112.4297,524.8091,116.4297,528.8091,112.4297" style="stroke:#181818;stroke-width:1.0;"/><line style="stroke:#181818;stroke-width:1.0;" x1="29.7827" x2="530.8091" y1="112.4297" y2="112.4297"/><text fill="#000000" font-family="sans-serif" font-size="13" lengthAdjust="spacing" textLength="35.2993" x="36.7827" y="107.3638">Login</text><polygon fill="#181818" points="40.7827,137.5625,30.7827,141.5625,40.7827,145.5625,36.7827,141.5625" style="stroke:#181818;stroke-width:1.0;"/><line style="stroke:#181818;stroke-width:1.0;" x1="34.7827" x2="540.8091" y1="141.5625" y2="141.5625"/><text fill="#000000" font-family="sans-serif" font-size="13" lengthAdjust="spacing" textLength="91.7617" x="46.7827" y="136.4966">Login Success</text><polygon fill="#181818" points="347.5615,166.6953,357.5615,170.6953,347.5615,174.6953,351.5615,170.6953" style="stroke:#181818;stroke-width:1.0;"/><line style="stroke:#181818;stroke-width:1.0;" x1="29.7827" x2="353.5615" y1="170.6953" y2="170.6953"/><text fill="#000000" font-family="sans-serif" font-size="13" lengthAdjust="spacing" textLength="112.8677" x="36.7827" y="165.6294">Submit Feedback</text><line style="stroke:#181818;stroke-width:1.0;" x1="369.5615" x2="411.5615" y1="199.8281" y2="199.8281"/><line style="stroke:#181818;stroke-width:1.0;" x1="411.5615" x2="411.5615" y1="199.8281" y2="212.8281"/><line style="stroke:#181818;stroke-width:1.0;" x1="370.5615" x2="411.5615" y1="212.8281" y2="212.8281"/><polygon fill="#181818" points="380.5615,208.8281,370.5615,212.8281,380.5615,216.8281,376.5615,212.8281" style="stroke:#181818;stroke-width:1.0;"/><text fill="#000000" font-family="sans-serif" font-size="13" lengthAdjust="spacing" textLength="143.2476" x="376.5615" y="194.7622">Save Player Feedback</text><polygon fill="#181818" points="40.7827,237.9609,30.7827,241.9609,40.7827,245.9609,36.7827,241.9609" style="stroke:#181818;stroke-width:1.0;"/><line style="stroke:#181818;stroke-width:1.0;" x1="34.7827" x2="363.5615" y1="241.9609" y2="241.9609"/><text fill="#000000" font-family="sans-serif" font-size="13" lengthAdjust="spacing" textLength="246.251" x="46.7827" y="236.895">Confirmation of Feedback Submission</text><polygon fill="#181818" points="524.8091,267.0938,534.8091,271.0938,524.8091,275.0938,528.8091,271.0938" style="stroke:#181818;stroke-width:1.0;"/><line style="stroke:#181818;stroke-width:1.0;" x1="89.3105" x2="530.8091" y1="271.0938" y2="271.0938"/><text fill="#000000" font-family="sans-serif" font-size="13" lengthAdjust="spacing" textLength="35.2993" x="96.3105" y="266.0278">Login</text><polygon fill="#181818" points="100.3105,296.2266,90.3105,300.2266,100.3105,304.2266,96.3105,300.2266" style="stroke:#181818;stroke-width:1.0;"/><line style="stroke:#181818;stroke-width:1.0;" x1="94.3105" x2="540.8091" y1="300.2266" y2="300.2266"/><text fill="#000000" font-family="sans-serif" font-size="13" lengthAdjust="spacing" textLength="91.7617" x="106.3105" y="295.1606">Login Success</text><polygon fill="#181818" points="347.5615,325.3594,357.5615,329.3594,347.5615,333.3594,351.5615,329.3594" style="stroke:#181818;stroke-width:1.0;"/><line style="stroke:#181818;stroke-width:1.0;" x1="89.3105" x2="353.5615" y1="329.3594" y2="329.3594"/><text fill="#000000" font-family="sans-serif" font-size="13" lengthAdjust="spacing" textLength="177.7788" x="96.3105" y="324.2935">Submit Feedback on Player</text><line style="stroke:#181818;stroke-width:1.0;" x1="369.5615" x2="411.5615" y1="358.4922" y2="358.4922"/><line style="stroke:#181818;stroke-width:1.0;" x1="411.5615" x2="411.5615" y1="358.4922" y2="371.4922"/><line style="stroke:#181818;stroke-width:1.0;" x1="370.5615" x2="411.5615" y1="371.4922" y2="371.4922"/><polygon fill="#181818" points="380.5615,367.4922,370.5615,371.4922,380.5615,375.4922,376.5615,371.4922" style="stroke:#181818;stroke-width:1.0;"/><text fill="#000000" font-family="sans-serif" font-size="13" lengthAdjust="spacing" textLength="143.1777" x="376.5615" y="353.4263">Save Coach Feedback</text><polygon fill="#181818" points="100.3105,396.625,90.3105,400.625,100.3105,404.625,96.3105,400.625" style="stroke:#181818;stroke-width:1.0;"/><line style="stroke:#181818;stroke-width:1.0;" x1="94.3105" x2="363.5615" y1="400.625" y2="400.625"/><text fill="#000000" font-family="sans-serif" font-size="13" lengthAdjust="spacing" textLength="246.251" x="106.3105" y="395.5591">Confirmation of Feedback Submission</text><!--SRC=[bP4z3eCW5CTtJl7YqgaNwD35XAc32ITuuhCbhMA0cdZxWbJ5njPqWG0__X-0qca3nGC7CWp7HQvHtbY7nYcfEcmTP9oeAb7U1PbUISe0BN2nPg96IXI2iGDCTq4yoqPPgtGBvJ1PnWcEPq_32IxwgjgGG_NeA2ZuxN0OiJVWfQGaQrb5APg8yI0s6hevm2BhetEnODZJP32pV6sRwxPMfa4NqkjwgrGQXlzg7jzt77TxHsgdzYorrHgywVAzN_j7ZO_wa_lVxLy0]--></g></svg>