<svg xmlns="http://www.w3.org/2000/svg" xmlns:xlink="http://www.w3.org/1999/xlink" contentStyleType="text/css" height="457px" preserveAspectRatio="none" style="width:672px;height:457px;background:#FFFFFF;" version="1.1" viewBox="0 0 672 457" width="672px" zoomAndPan="magnify"><defs/><g><rect fill="#FFFFFF" height="129.5313" style="stroke:#181818;stroke-width:1.0;" width="10" x="254.7583" y="112.4297"/><rect fill="#FFFFFF" height="29.1328" style="stroke:#181818;stroke-width:1.0;" width="10" x="469.1479" y="183.6953"/><rect fill="#FFFFFF" height="29.1328" style="stroke:#181818;stroke-width:1.0;" width="10" x="606.8364" y="271.0938"/><rect fill="#FFFFFF" height="29.1328" style="stroke:#181818;stroke-width:1.0;" width="10" x="606.8364" y="329.3594"/><line style="stroke:#181818;stroke-width:0.5;stroke-dasharray:5.0,5.0;" x1="29" x2="29" y1="81.2969" y2="376.4922"/><line style="stroke:#181818;stroke-width:0.5;stroke-dasharray:5.0,5.0;" x1="88.4902" x2="88.4902" y1="81.2969" y2="376.4922"/><line style="stroke:#181818;stroke-width:0.5;stroke-dasharray:5.0,5.0;" x1="259.5303" x2="259.5303" y1="81.2969" y2="376.4922"/><line style="stroke:#181818;stroke-width:0.5;stroke-dasharray:5.0,5.0;" x1="474.1128" x2="474.1128" y1="81.2969" y2="376.4922"/><line style="stroke:#181818;stroke-width:0.5;stroke-dasharray:5.0,5.0;" x1="611.1831" x2="611.1831" y1="81.2969" y2="376.4922"/><text fill="#000000" font-family="sans-serif" font-size="14" lengthAdjust="spacing" textLength="43.4902" x="5" y="77.9951">Coach</text><ellipse cx="29.7451" cy="13.5" fill="#E2E2F0" rx="8" ry="8" style="stroke:#181818;stroke-width:0.5;"/><path d="M29.7451,21.5 L29.7451,48.5 M16.7451,29.5 L42.7451,29.5 M29.7451,48.5 L16.7451,63.5 M29.7451,48.5 L42.7451,63.5 " fill="none" style="stroke:#181818;stroke-width:0.5;"/><text fill="#000000" font-family="sans-serif" font-size="14" lengthAdjust="spacing" textLength="43.4902" x="5" y="388.4873">Coach</text><ellipse cx="29.7451" cy="400.2891" fill="#E2E2F0" rx="8" ry="8" style="stroke:#181818;stroke-width:0.5;"/><path d="M29.7451,408.2891 L29.7451,435.2891 M16.7451,416.2891 L42.7451,416.2891 M29.7451,435.2891 L16.7451,450.2891 M29.7451,435.2891 L42.7451,450.2891 " fill="none" style="stroke:#181818;stroke-width:0.5;"/><text fill="#000000" font-family="sans-serif" font-size="14" lengthAdjust="spacing" textLength="43.5654" x="64.4902" y="77.9951">Player</text><ellipse cx="89.2729" cy="13.5" fill="#E2E2F0" rx="8" ry="8" style="stroke:#181818;stroke-width:0.5;"/><path d="M89.2729,21.5 L89.2729,48.5 M76.2729,29.5 L102.2729,29.5 M89.2729,48.5 L76.2729,63.5 M89.2729,48.5 L102.2729,63.5 " fill="none" style="stroke:#181818;stroke-width:0.5;"/><text fill="#000000" font-family="sans-serif" font-size="14" lengthAdjust="spacing" textLength="43.5654" x="64.4902" y="388.4873">Player</text><ellipse cx="89.2729" cy="400.2891" fill="#E2E2F0" rx="8" ry="8" style="stroke:#181818;stroke-width:0.5;"/><path d="M89.2729,408.2891 L89.2729,435.2891 M76.2729,416.2891 L102.2729,416.2891 M89.2729,435.2891 L76.2729,450.2891 M89.2729,435.2891 L102.2729,450.2891 " fill="none" style="stroke:#181818;stroke-width:0.5;"/><rect fill="#E2E2F0" height="30.2969" rx="2.5" ry="2.5" style="stroke:#181818;stroke-width:0.5;" width="176.4561" x="171.5303" y="50"/><text fill="#000000" font-family="sans-serif" font-size="14" lengthAdjust="spacing" textLength="162.4561" x="178.5303" y="69.9951">TrainingSessionService</text><rect fill="#E2E2F0" height="30.2969" rx="2.5" ry="2.5" style="stroke:#181818;stroke-width:0.5;" width="176.4561" x="171.5303" y="375.4922"/><text fill="#000000" font-family="sans-serif" font-size="14" lengthAdjust="spacing" textLength="162.4561" x="178.5303" y="395.4873">TrainingSessionService</text><rect fill="#E2E2F0" height="30.2969" rx="2.5" ry="2.5" style="stroke:#181818;stroke-width:0.5;" width="146.0703" x="401.1128" y="50"/><text fill="#000000" font-family="sans-serif" font-size="14" lengthAdjust="spacing" textLength="132.0703" x="408.1128" y="69.9951">NotificationService</text><rect fill="#E2E2F0" height="30.2969" rx="2.5" ry="2.5" style="stroke:#181818;stroke-width:0.5;" width="146.0703" x="401.1128" y="375.4922"/><text fill="#000000" font-family="sans-serif" font-size="14" lengthAdjust="spacing" textLength="132.0703" x="408.1128" y="395.4873">NotificationService</text><rect fill="#E2E2F0" height="30.2969" rx="2.5" ry="2.5" style="stroke:#181818;stroke-width:0.5;" width="109.3066" x="557.1831" y="50"/><text fill="#000000" font-family="sans-serif" font-size="14" lengthAdjust="spacing" textLength="95.3066" x="564.1831" y="69.9951">PlayerService</text><rect fill="#E2E2F0" height="30.2969" rx="2.5" ry="2.5" style="stroke:#181818;stroke-width:0.5;" width="109.3066" x="557.1831" y="375.4922"/><text fill="#000000" font-family="sans-serif" font-size="14" lengthAdjust="spacing" textLength="95.3066" x="564.1831" y="395.4873">PlayerService</text><rect fill="#FFFFFF" height="129.5313" style="stroke:#181818;stroke-width:1.0;" width="10" x="254.7583" y="112.4297"/><rect fill="#FFFFFF" height="29.1328" style="stroke:#181818;stroke-width:1.0;" width="10" x="469.1479" y="183.6953"/><rect fill="#FFFFFF" height="29.1328" style="stroke:#181818;stroke-width:1.0;" width="10" x="606.8364" y="271.0938"/><rect fill="#FFFFFF" height="29.1328" style="stroke:#181818;stroke-width:1.0;" width="10" x="606.8364" y="329.3594"/><polygon fill="#181818" points="242.7583,108.4297,252.7583,112.4297,242.7583,116.4297,246.7583,112.4297" style="stroke:#181818;stroke-width:1.0;"/><line style="stroke:#181818;stroke-width:1.0;" x1="29.7451" x2="248.7583" y1="112.4297" y2="112.4297"/><text fill="#000000" font-family="sans-serif" font-size="13" lengthAdjust="spacing" textLength="206.0132" x="36.7451" y="107.3638">Create/Update Training Session</text><line style="stroke:#181818;stroke-width:1.0;" x1="264.7583" x2="306.7583" y1="141.5625" y2="141.5625"/><line style="stroke:#181818;stroke-width:1.0;" x1="306.7583" x2="306.7583" y1="141.5625" y2="154.5625"/><line style="stroke:#181818;stroke-width:1.0;" x1="265.7583" x2="306.7583" y1="154.5625" y2="154.5625"/><polygon fill="#181818" points="275.7583,150.5625,265.7583,154.5625,275.7583,158.5625,271.7583,154.5625" style="stroke:#181818;stroke-width:1.0;"/><text fill="#000000" font-family="sans-serif" font-size="13" lengthAdjust="spacing" textLength="134.8433" x="271.7583" y="136.4966">Save Session Details</text><polygon fill="#181818" points="457.1479,179.6953,467.1479,183.6953,457.1479,187.6953,461.1479,183.6953" style="stroke:#181818;stroke-width:1.0;"/><line style="stroke:#181818;stroke-width:1.0;" x1="264.7583" x2="463.1479" y1="183.6953" y2="183.6953"/><text fill="#000000" font-family="sans-serif" font-size="13" lengthAdjust="spacing" textLength="185.3896" x="271.7583" y="178.6294">Notify Players about Session</text><polygon fill="#181818" points="100.2729,208.8281,90.2729,212.8281,100.2729,216.8281,96.2729,212.8281" style="stroke:#181818;stroke-width:1.0;"/><line style="stroke:#181818;stroke-width:1.0;" x1="94.2729" x2="473.1479" y1="212.8281" y2="212.8281"/><text fill="#000000" font-family="sans-serif" font-size="13" lengthAdjust="spacing" textLength="239.1987" x="106.2729" y="207.7622">Send Notification of Training Session</text><polygon fill="#181818" points="40.7451,237.9609,30.7451,241.9609,40.7451,245.9609,36.7451,241.9609" style="stroke:#181818;stroke-width:1.0;"/><line style="stroke:#181818;stroke-width:1.0;" x1="34.7451" x2="258.7583" y1="241.9609" y2="241.9609"/><text fill="#000000" font-family="sans-serif" font-size="13" lengthAdjust="spacing" textLength="154.7305" x="46.7451" y="236.895">Confirmation of Session</text><polygon fill="#181818" points="594.8364,267.0938,604.8364,271.0938,594.8364,275.0938,598.8364,271.0938" style="stroke:#181818;stroke-width:1.0;"/><line style="stroke:#181818;stroke-width:1.0;" x1="89.2729" x2="600.8364" y1="271.0938" y2="271.0938"/><text fill="#000000" font-family="sans-serif" font-size="13" lengthAdjust="spacing" textLength="35.2993" x="96.2729" y="266.0278">Login</text><polygon fill="#181818" points="100.2729,296.2266,90.2729,300.2266,100.2729,304.2266,96.2729,300.2266" style="stroke:#181818;stroke-width:1.0;"/><line style="stroke:#181818;stroke-width:1.0;" x1="94.2729" x2="610.8364" y1="300.2266" y2="300.2266"/><text fill="#000000" font-family="sans-serif" font-size="13" lengthAdjust="spacing" textLength="91.7617" x="106.2729" y="295.1606">Login Success</text><polygon fill="#181818" points="594.8364,325.3594,604.8364,329.3594,594.8364,333.3594,598.8364,329.3594" style="stroke:#181818;stroke-width:1.0;"/><line style="stroke:#181818;stroke-width:1.0;" x1="89.2729" x2="600.8364" y1="329.3594" y2="329.3594"/><text fill="#000000" font-family="sans-serif" font-size="13" lengthAdjust="spacing" textLength="218.7466" x="96.2729" y="324.2935">View Upcoming Training Sessions</text><polygon fill="#181818" points="100.2729,354.4922,90.2729,358.4922,100.2729,362.4922,96.2729,358.4922" style="stroke:#181818;stroke-width:1.0;"/><line style="stroke:#181818;stroke-width:1.0;" x1="94.2729" x2="610.8364" y1="358.4922" y2="358.4922"/><text fill="#000000" font-family="sans-serif" font-size="13" lengthAdjust="spacing" textLength="178.1914" x="106.2729" y="353.4263">Display Upcoming Sessions</text><!--SRC=[VP2nRiCW48PtdkAKfLFLlKEMPAmigoJTh_YSdfG00k8gRrymsCLsrSb8_lwxxpzKmJWu65HV0iTtUyK7EM7H1LPiKGVOdHooPdsHv3qRBSaDh6W7wE4avP9jJE2U5OOLsAoulAScMYd4KtQ1WoCCv5_EjajVG9WSe4Y833xlamAybaG9REbOZeVnJnHEYJaeSQ09WoC5vAkVY2O1OwD7EKnK-JJti9qR-pLZ9dDfCEaEwdE0wRTY7TKZojxSBPOokcTtczD_X5AVUBR9xfqKSInKxnL5AScbGc_cmfLvl7kxD1y1a7UbuhvwMKANipwOlk5ibRcbKkjs_hyjH_Osld_JSsYnyGS0]--></g></svg>