<svg xmlns="http://www.w3.org/2000/svg" xmlns:xlink="http://www.w3.org/1999/xlink" contentStyleType="text/css" height="602px" preserveAspectRatio="none" style="width:662px;height:602px;background:#FFFFFF;" version="1.1" viewBox="0 0 662 602" width="662px" zoomAndPan="magnify"><defs/><g><rect fill="#FFFFFF" height="29.1328" style="stroke:#181818;stroke-width:1.0;" width="10" x="235.3525" y="112.4297"/><rect fill="#FFFFFF" height="129.5313" style="stroke:#181818;stroke-width:1.0;" width="10" x="235.3525" y="170.6953"/><rect fill="#FFFFFF" height="58.2656" style="stroke:#181818;stroke-width:1.0;" width="10" x="235.3525" y="329.3594"/><rect fill="#FFFFFF" height="71.2656" style="stroke:#181818;stroke-width:1.0;" width="10" x="422.6548" y="199.8281"/><rect fill="#FFFFFF" height="29.1328" style="stroke:#181818;stroke-width:1.0;" width="10" x="422.6548" y="358.4922"/><rect fill="#FFFFFF" height="29.1328" style="stroke:#181818;stroke-width:1.0;" width="10" x="422.6548" y="445.8906"/><rect fill="#FFFFFF" height="87.3984" style="stroke:#181818;stroke-width:1.0;" width="10" x="595.4868" y="416.7578"/><line style="stroke:#181818;stroke-width:0.5;stroke-dasharray:5.0,5.0;" x1="29" x2="29" y1="81.2969" y2="522.1563"/><line style="stroke:#181818;stroke-width:0.5;stroke-dasharray:5.0,5.0;" x1="88.5654" x2="88.5654" y1="81.2969" y2="522.1563"/><line style="stroke:#181818;stroke-width:0.5;stroke-dasharray:5.0,5.0;" x1="239.6992" x2="239.6992" y1="81.2969" y2="522.1563"/><line style="stroke:#181818;stroke-width:0.5;stroke-dasharray:5.0,5.0;" x1="427.2124" x2="427.2124" y1="81.2969" y2="522.1563"/><line style="stroke:#181818;stroke-width:0.5;stroke-dasharray:5.0,5.0;" x1="600.0972" x2="600.0972" y1="81.2969" y2="522.1563"/><text fill="#000000" font-family="sans-serif" font-size="14" lengthAdjust="spacing" textLength="43.5654" x="5" y="77.9951">Player</text><ellipse cx="29.7827" cy="13.5" fill="#E2E2F0" rx="8" ry="8" style="stroke:#181818;stroke-width:0.5;"/><path d="M29.7827,21.5 L29.7827,48.5 M16.7827,29.5 L42.7827,29.5 M29.7827,48.5 L16.7827,63.5 M29.7827,48.5 L42.7827,63.5 " fill="none" style="stroke:#181818;stroke-width:0.5;"/><text fill="#000000" font-family="sans-serif" font-size="14" lengthAdjust="spacing" textLength="43.5654" x="5" y="534.1514">Player</text><ellipse cx="29.7827" cy="545.9531" fill="#E2E2F0" rx="8" ry="8" style="stroke:#181818;stroke-width:0.5;"/><path d="M29.7827,553.9531 L29.7827,580.9531 M16.7827,561.9531 L42.7827,561.9531 M29.7827,580.9531 L16.7827,595.9531 M29.7827,580.9531 L42.7827,595.9531 " fill="none" style="stroke:#181818;stroke-width:0.5;"/><text fill="#000000" font-family="sans-serif" font-size="14" lengthAdjust="spacing" textLength="43.4902" x="64.5654" y="77.9951">Coach</text><ellipse cx="89.3105" cy="13.5" fill="#E2E2F0" rx="8" ry="8" style="stroke:#181818;stroke-width:0.5;"/><path d="M89.3105,21.5 L89.3105,48.5 M76.3105,29.5 L102.3105,29.5 M89.3105,48.5 L76.3105,63.5 M89.3105,48.5 L102.3105,63.5 " fill="none" style="stroke:#181818;stroke-width:0.5;"/><text fill="#000000" font-family="sans-serif" font-size="14" lengthAdjust="spacing" textLength="43.4902" x="64.5654" y="534.1514">Coach</text><ellipse cx="89.3105" cy="545.9531" fill="#E2E2F0" rx="8" ry="8" style="stroke:#181818;stroke-width:0.5;"/><path d="M89.3105,553.9531 L89.3105,580.9531 M76.3105,561.9531 L102.3105,561.9531 M89.3105,580.9531 L76.3105,595.9531 M89.3105,580.9531 L102.3105,595.9531 " fill="none" style="stroke:#181818;stroke-width:0.5;"/><rect fill="#E2E2F0" height="30.2969" rx="2.5" ry="2.5" style="stroke:#181818;stroke-width:0.5;" width="109.3066" x="185.6992" y="50"/><text fill="#000000" font-family="sans-serif" font-size="14" lengthAdjust="spacing" textLength="95.3066" x="192.6992" y="69.9951">PlayerService</text><rect fill="#E2E2F0" height="30.2969" rx="2.5" ry="2.5" style="stroke:#181818;stroke-width:0.5;" width="109.3066" x="185.6992" y="521.1563"/><text fill="#000000" font-family="sans-serif" font-size="14" lengthAdjust="spacing" textLength="95.3066" x="192.6992" y="541.1514">PlayerService</text><rect fill="#E2E2F0" height="30.2969" rx="2.5" ry="2.5" style="stroke:#181818;stroke-width:0.5;" width="212.8848" x="321.2124" y="50"/><text fill="#000000" font-family="sans-serif" font-size="14" lengthAdjust="spacing" textLength="198.8848" x="328.2124" y="69.9951">PerformanceAnalysisService</text><rect fill="#E2E2F0" height="30.2969" rx="2.5" ry="2.5" style="stroke:#181818;stroke-width:0.5;" width="212.8848" x="321.2124" y="521.1563"/><text fill="#000000" font-family="sans-serif" font-size="14" lengthAdjust="spacing" textLength="198.8848" x="328.2124" y="541.1514">PerformanceAnalysisService</text><rect fill="#E2E2F0" height="30.2969" rx="2.5" ry="2.5" style="stroke:#181818;stroke-width:0.5;" width="112.7793" x="544.0972" y="50"/><text fill="#000000" font-family="sans-serif" font-size="14" lengthAdjust="spacing" textLength="98.7793" x="551.0972" y="69.9951">ReportService</text><rect fill="#E2E2F0" height="30.2969" rx="2.5" ry="2.5" style="stroke:#181818;stroke-width:0.5;" width="112.7793" x="544.0972" y="521.1563"/><text fill="#000000" font-family="sans-serif" font-size="14" lengthAdjust="spacing" textLength="98.7793" x="551.0972" y="541.1514">ReportService</text><rect fill="#FFFFFF" height="29.1328" style="stroke:#181818;stroke-width:1.0;" width="10" x="235.3525" y="112.4297"/><rect fill="#FFFFFF" height="129.5313" style="stroke:#181818;stroke-width:1.0;" width="10" x="235.3525" y="170.6953"/><rect fill="#FFFFFF" height="58.2656" style="stroke:#181818;stroke-width:1.0;" width="10" x="235.3525" y="329.3594"/><rect fill="#FFFFFF" height="71.2656" style="stroke:#181818;stroke-width:1.0;" width="10" x="422.6548" y="199.8281"/><rect fill="#FFFFFF" height="29.1328" style="stroke:#181818;stroke-width:1.0;" width="10" x="422.6548" y="358.4922"/><rect fill="#FFFFFF" height="29.1328" style="stroke:#181818;stroke-width:1.0;" width="10" x="422.6548" y="445.8906"/><rect fill="#FFFFFF" height="87.3984" style="stroke:#181818;stroke-width:1.0;" width="10" x="595.4868" y="416.7578"/><polygon fill="#181818" points="223.3525,108.4297,233.3525,112.4297,223.3525,116.4297,227.3525,112.4297" style="stroke:#181818;stroke-width:1.0;"/><line style="stroke:#181818;stroke-width:1.0;" x1="29.7827" x2="229.3525" y1="112.4297" y2="112.4297"/><text fill="#000000" font-family="sans-serif" font-size="13" lengthAdjust="spacing" textLength="35.2993" x="36.7827" y="107.3638">Login</text><polygon fill="#181818" points="40.7827,137.5625,30.7827,141.5625,40.7827,145.5625,36.7827,141.5625" style="stroke:#181818;stroke-width:1.0;"/><line style="stroke:#181818;stroke-width:1.0;" x1="34.7827" x2="239.3525" y1="141.5625" y2="141.5625"/><text fill="#000000" font-family="sans-serif" font-size="13" lengthAdjust="spacing" textLength="52.3301" x="46.7827" y="136.4966">Success</text><polygon fill="#181818" points="223.3525,166.6953,233.3525,170.6953,223.3525,174.6953,227.3525,170.6953" style="stroke:#181818;stroke-width:1.0;"/><line style="stroke:#181818;stroke-width:1.0;" x1="29.7827" x2="229.3525" y1="170.6953" y2="170.6953"/><text fill="#000000" font-family="sans-serif" font-size="13" lengthAdjust="spacing" textLength="185.6055" x="36.7827" y="165.6294">Update Performance Metrics</text><polygon fill="#181818" points="410.6548,195.8281,420.6548,199.8281,410.6548,203.8281,414.6548,199.8281" style="stroke:#181818;stroke-width:1.0;"/><line style="stroke:#181818;stroke-width:1.0;" x1="245.3525" x2="416.6548" y1="199.8281" y2="199.8281"/><text fill="#000000" font-family="sans-serif" font-size="13" lengthAdjust="spacing" textLength="119.2344" x="252.3525" y="194.7622">Send Metrics Data</text><line style="stroke:#181818;stroke-width:1.0;" x1="432.6548" x2="474.6548" y1="228.9609" y2="228.9609"/><line style="stroke:#181818;stroke-width:1.0;" x1="474.6548" x2="474.6548" y1="228.9609" y2="241.9609"/><line style="stroke:#181818;stroke-width:1.0;" x1="433.6548" x2="474.6548" y1="241.9609" y2="241.9609"/><polygon fill="#181818" points="443.6548,237.9609,433.6548,241.9609,443.6548,245.9609,439.6548,241.9609" style="stroke:#181818;stroke-width:1.0;"/><text fill="#000000" font-family="sans-serif" font-size="13" lengthAdjust="spacing" textLength="102.5464" x="439.6548" y="223.895">Analyze Metrics</text><polygon fill="#181818" points="256.3525,267.0938,246.3525,271.0938,256.3525,275.0938,252.3525,271.0938" style="stroke:#181818;stroke-width:1.0;"/><line style="stroke:#181818;stroke-width:1.0;" x1="250.3525" x2="426.6548" y1="271.0938" y2="271.0938"/><text fill="#000000" font-family="sans-serif" font-size="13" lengthAdjust="spacing" textLength="153.3022" x="262.3525" y="266.0278">Return Analysis Results</text><polygon fill="#181818" points="40.7827,296.2266,30.7827,300.2266,40.7827,304.2266,36.7827,300.2266" style="stroke:#181818;stroke-width:1.0;"/><line style="stroke:#181818;stroke-width:1.0;" x1="34.7827" x2="239.3525" y1="300.2266" y2="300.2266"/><text fill="#000000" font-family="sans-serif" font-size="13" lengthAdjust="spacing" textLength="157.2695" x="46.7827" y="295.1606">Display Analysis Results</text><polygon fill="#181818" points="223.3525,325.3594,233.3525,329.3594,223.3525,333.3594,227.3525,329.3594" style="stroke:#181818;stroke-width:1.0;"/><line style="stroke:#181818;stroke-width:1.0;" x1="89.3105" x2="229.3525" y1="329.3594" y2="329.3594"/><text fill="#000000" font-family="sans-serif" font-size="13" lengthAdjust="spacing" textLength="127.042" x="96.3105" y="324.2935">View Player Metrics</text><polygon fill="#181818" points="410.6548,354.4922,420.6548,358.4922,410.6548,362.4922,414.6548,358.4922" style="stroke:#181818;stroke-width:1.0;"/><line style="stroke:#181818;stroke-width:1.0;" x1="245.3525" x2="416.6548" y1="358.4922" y2="358.4922"/><text fill="#000000" font-family="sans-serif" font-size="13" lengthAdjust="spacing" textLength="131.8662" x="252.3525" y="353.4263">Fetch Player Metrics</text><polygon fill="#181818" points="100.3105,383.625,90.3105,387.625,100.3105,391.625,96.3105,387.625" style="stroke:#181818;stroke-width:1.0;"/><line style="stroke:#181818;stroke-width:1.0;" x1="94.3105" x2="426.6548" y1="387.625" y2="387.625"/><text fill="#000000" font-family="sans-serif" font-size="13" lengthAdjust="spacing" textLength="139.8579" x="106.3105" y="382.5591">Return Player Metrics</text><polygon fill="#181818" points="583.4868,412.7578,593.4868,416.7578,583.4868,420.7578,587.4868,416.7578" style="stroke:#181818;stroke-width:1.0;"/><line style="stroke:#181818;stroke-width:1.0;" x1="89.3105" x2="589.4868" y1="416.7578" y2="416.7578"/><text fill="#000000" font-family="sans-serif" font-size="13" lengthAdjust="spacing" textLength="195.73" x="96.3105" y="411.6919">Generate Performance Report</text><polygon fill="#181818" points="443.6548,441.8906,433.6548,445.8906,443.6548,449.8906,439.6548,445.8906" style="stroke:#181818;stroke-width:1.0;"/><line style="stroke:#181818;stroke-width:1.0;" x1="437.6548" x2="594.4868" y1="445.8906" y2="445.8906"/><text fill="#000000" font-family="sans-serif" font-size="13" lengthAdjust="spacing" textLength="128.8257" x="449.6548" y="440.8247">Fetch Analysis Data</text><polygon fill="#181818" points="583.4868,471.0234,593.4868,475.0234,583.4868,479.0234,587.4868,475.0234" style="stroke:#181818;stroke-width:1.0;"/><line style="stroke:#181818;stroke-width:1.0;" x1="427.6548" x2="589.4868" y1="475.0234" y2="475.0234"/><text fill="#000000" font-family="sans-serif" font-size="13" lengthAdjust="spacing" textLength="136.8174" x="434.6548" y="469.9575">Return Analysis Data</text><polygon fill="#181818" points="100.3105,500.1563,90.3105,504.1563,100.3105,508.1563,96.3105,504.1563" style="stroke:#181818;stroke-width:1.0;"/><line style="stroke:#181818;stroke-width:1.0;" x1="94.3105" x2="599.4868" y1="504.1563" y2="504.1563"/><text fill="#000000" font-family="sans-serif" font-size="13" lengthAdjust="spacing" textLength="182.9331" x="106.3105" y="499.0903">Display Performance Report</text><!--SRC=[XPBBJWGX44NtV4Lbzlx0B4mwJdIZoGIY-mfTAaaB1EWnuzVB8_I3wTPTqtMgxhq5A8DnS1xmIevXFZmOb9_CeWjAAeiwmA7K1RcBadG0z70M3K7ktRWlr98wZSFLAx_2kuRdP8qBIuGBneeEtDt7-N24P_EXT7AbBXWeQSRVgLYm8uXHIlAUzRI4sZ6lji-LsIAyK71A-gtPNMeHfFiAmGa3BiWO9K4Jc_F-p3DhCTKuXT5fg2k9PpyEOMsukubrKjx6xx_ROivyKvFMcwBlEkE_V8yKOkSkF4Si4bEGfgE9iMUF9yadqkJQUoZFO5QEZu3Vs9pMi7iHV6lNcMuSybMekkSDHui-Bdu1]--></g></svg>