<svg xmlns="http://www.w3.org/2000/svg" xmlns:xlink="http://www.w3.org/1999/xlink" contentStyleType="text/css" height="653px" preserveAspectRatio="none" style="width:522px;height:653px;background:#FFFFFF;" version="1.1" viewBox="0 0 522 653" width="522px" zoomAndPan="magnify"><defs/><g><!--cluster Empowering Athletes with Tech Insights--><g id="cluster_Empowering Athletes with Tech Insights"><rect fill="none" height="640" rx="2.5" ry="2.5" style="stroke:#181818;stroke-width:1.0;" width="333.21" x="94.86" y="7"/><text fill="#000000" font-family="sans-serif" font-size="14" font-weight="bold" lengthAdjust="spacing" textLength="318.7393" x="102.0954" y="21.9951">Empowering Athletes with Tech Insights</text></g><g id="elem_UC_LoginRegister"><ellipse cx="260.9682" cy="278.0036" fill="#F1F1F1" rx="73.0682" ry="17.0136" style="stroke:#181818;stroke-width:0.5;"/><text fill="#000000" font-family="sans-serif" font-size="14" lengthAdjust="spacing" textLength="101.001" x="207.4677" y="281.7512">Login/Register</text></g><g id="elem_UC_UpdatePerformanceMetrics"><ellipse cx="260.9655" cy="605.0011" fill="#F1F1F1" rx="116.5055" ry="25.7011" style="stroke:#181818;stroke-width:0.5;"/><text fill="#000000" font-family="sans-serif" font-size="14" lengthAdjust="spacing" textLength="199.8828" x="161.0241" y="607.8478">Update Performance Metrics</text></g><g id="elem_UC_ManageCoaches"><ellipse cx="260.9658" cy="59.9972" fill="#F1F1F1" rx="80.3858" ry="18.4772" style="stroke:#181818;stroke-width:0.5;"/><text fill="#000000" font-family="sans-serif" font-size="14" lengthAdjust="spacing" textLength="119.458" x="199.7153" y="63.3348">Manage Coaches</text></g><g id="elem_UC_TrainingSessionManagement"><ellipse cx="260.9745" cy="517.0009" fill="#F1F1F1" rx="122.1045" ry="26.8209" style="stroke:#181818;stroke-width:0.5;"/><text fill="#000000" font-family="sans-serif" font-size="14" lengthAdjust="spacing" textLength="211.8389" x="155.0551" y="519.8476">Training Session Management</text></g><g id="elem_UC_ManageTeams"><ellipse cx="260.9716" cy="208.9963" fill="#F1F1F1" rx="75.2816" ry="17.4563" style="stroke:#181818;stroke-width:0.5;"/><text fill="#000000" font-family="sans-serif" font-size="14" lengthAdjust="spacing" textLength="106.7363" x="204.6034" y="212.7439">Manage Teams</text></g><g id="elem_UC_PerformanceAnalysis"><ellipse cx="260.9719" cy="134.9964" fill="#F1F1F1" rx="94.3819" ry="21.2764" style="stroke:#181818;stroke-width:0.5;"/><text fill="#000000" font-family="sans-serif" font-size="14" lengthAdjust="spacing" textLength="151.5938" x="185.175" y="137.8431">Performance Analysis</text></g><g id="elem_UC_PerformanceProgressReport"><ellipse cx="260.9691" cy="429.0038" fill="#F1F1F1" rx="119.3691" ry="26.2738" style="stroke:#181818;stroke-width:0.5;"/><text fill="#000000" font-family="sans-serif" font-size="14" lengthAdjust="spacing" textLength="206.0078" x="157.9652" y="431.8505">Performance Progress Report</text></g><g id="elem_UC_FeedbackService"><ellipse cx="260.9707" cy="348.9961" fill="#F1F1F1" rx="82.1307" ry="18.8261" style="stroke:#181818;stroke-width:0.5;"/><text fill="#000000" font-family="sans-serif" font-size="14" lengthAdjust="spacing" textLength="123.6279" x="198.2644" y="352.1398">Feedback Service</text></g><!--entity A--><g id="elem_A"><ellipse cx="28.4321" cy="248.35" fill="#F1F1F1" rx="8" ry="8" style="stroke:#181818;stroke-width:0.5;"/><path d="M28.4321,256.35 L28.4321,283.35 M15.4321,264.35 L41.4321,264.35 M28.4321,283.35 L15.4321,298.35 M28.4321,283.35 L41.4321,298.35 " fill="none" style="stroke:#181818;stroke-width:0.5;"/><text fill="#000000" font-family="sans-serif" font-size="14" lengthAdjust="spacing" textLength="44.8643" x="6" y="312.8451">Admin</text></g><!--entity P--><g id="elem_P"><ellipse cx="28.4327" cy="379.35" fill="#F1F1F1" rx="8" ry="8" style="stroke:#181818;stroke-width:0.5;"/><path d="M28.4327,387.35 L28.4327,414.35 M15.4327,395.35 L41.4327,395.35 M28.4327,414.35 L15.4327,429.35 M28.4327,414.35 L41.4327,429.35 " fill="none" style="stroke:#181818;stroke-width:0.5;"/><text fill="#000000" font-family="sans-serif" font-size="14" lengthAdjust="spacing" textLength="43.5654" x="6.65" y="443.8451">Player</text></g><!--entity C--><g id="elem_C"><ellipse cx="493.8151" cy="319.35" fill="#F1F1F1" rx="8" ry="8" style="stroke:#181818;stroke-width:0.5;"/><path d="M493.8151,327.35 L493.8151,354.35 M480.8151,335.35 L506.8151,335.35 M493.8151,354.35 L480.8151,369.35 M493.8151,354.35 L506.8151,369.35 " fill="none" style="stroke:#181818;stroke-width:0.5;"/><text fill="#000000" font-family="sans-serif" font-size="14" lengthAdjust="spacing" textLength="43.4902" x="472.07" y="383.8451">Coach</text></g><!--link A to UC_LoginRegister--><g id="link_A_UC_LoginRegister"><path d="M51.12,278 C82.06,278 134.33,278 181.48,278 " fill="none" id="A-to-UC_LoginRegister" style="stroke:#181818;stroke-width:1.0;"/><polygon fill="#181818" points="187.48,278,178.48,274,182.48,278,178.48,282,187.48,278" style="stroke:#181818;stroke-width:1.0;"/></g><!--link A to UC_ManageCoaches--><g id="link_A_UC_ManageCoaches"><path d="M30.64,239.63 C34.1,198.07 46.19,132.78 86.86,96 C112.02,73.25 141.761,64.1299 174.201,60.3199 " fill="none" id="A-to-UC_ManageCoaches" style="stroke:#181818;stroke-width:1.0;"/><polygon fill="#181818" points="180.16,59.62,170.7549,56.6971,175.1941,60.2032,171.688,64.6425,180.16,59.62" style="stroke:#181818;stroke-width:1.0;"/></g><!--link A to UC_ManageTeams--><g id="link_A_UC_ManageTeams"><path d="M51.12,262.27 C61.49,255.42 74.35,247.86 86.86,243 C120.55,229.91 154.0311,222.5811 186.7311,217.5011 " fill="none" id="A-to-UC_ManageTeams" style="stroke:#181818;stroke-width:1.0;"/><polygon fill="#181818" points="192.66,216.58,183.1526,214.009,187.7193,217.3476,184.3807,221.9142,192.66,216.58" style="stroke:#181818;stroke-width:1.0;"/></g><!--link A to UC_PerformanceProgressReport--><g id="link_A_UC_PerformanceProgressReport"><path d="M41.17,316.41 C50.13,339.52 64.77,367.73 86.86,385 C106.41,400.28 124.851,408.7329 148.931,415.2929 " fill="none" id="A-to-UC_PerformanceProgressReport" style="stroke:#181818;stroke-width:1.0;"/><polygon fill="#181818" points="154.72,416.87,147.0878,410.645,149.8958,415.5558,144.9851,418.3637,154.72,416.87" style="stroke:#181818;stroke-width:1.0;"/></g><!--link A to UC_FeedbackService--><g id="link_A_UC_FeedbackService"><path d="M51.14,293.67 C61.52,300.5 74.38,308.07 86.86,313 C119.13,325.74 150.7185,333.2233 182.5585,338.7533 " fill="none" id="A-to-UC_FeedbackService" style="stroke:#181818;stroke-width:1.0;"/><polygon fill="#181818" points="188.47,339.78,180.2872,334.2989,183.5437,338.9244,178.9183,342.1809,188.47,339.78" style="stroke:#181818;stroke-width:1.0;"/></g><!--link P to UC_LoginRegister--><g id="link_P_UC_LoginRegister"><path d="M43.36,370.81 C52.66,350.61 66.89,327.13 86.86,313 C116.03,292.37 148.5386,283.9493 181.7986,280.1593 " fill="none" id="P-to-UC_LoginRegister" style="stroke:#181818;stroke-width:1.0;"/><polygon fill="#181818" points="187.76,279.48,178.365,276.5247,182.7921,280.0461,179.2707,284.4732,187.76,279.48" style="stroke:#181818;stroke-width:1.0;"/></g><!--link P to UC_UpdatePerformanceMetrics--><g id="link_P_UC_UpdatePerformanceMetrics"><path d="M33.91,447.37 C39.99,481.97 54.15,531.77 86.86,561 C105.48,577.63 123.7128,586.5662 147.9028,593.1862 " fill="none" id="P-to-UC_UpdatePerformanceMetrics" style="stroke:#181818;stroke-width:1.0;"/><polygon fill="#181818" points="153.69,594.77,146.065,588.5362,148.8673,593.4502,143.9534,596.2525,153.69,594.77" style="stroke:#181818;stroke-width:1.0;"/></g><!--link P to UC_PerformanceProgressReport--><g id="link_P_UC_PerformanceProgressReport"><path d="M50.71,410.85 C73.56,412.83 105.6824,415.6115 143.1524,418.8615 " fill="none" id="P-to-UC_PerformanceProgressReport" style="stroke:#181818;stroke-width:1.0;"/><polygon fill="#181818" points="149.13,419.38,140.5093,414.6173,144.1487,418.9479,139.818,422.5873,149.13,419.38" style="stroke:#181818;stroke-width:1.0;"/></g><!--link P to UC_FeedbackService--><g id="link_P_UC_FeedbackService"><path d="M50.62,399.01 C61.31,394.26 74.58,388.81 86.86,385 C121.32,374.33 154.7111,366.9668 187.1411,360.9368 " fill="none" id="P-to-UC_FeedbackService" style="stroke:#181818;stroke-width:1.0;"/><polygon fill="#181818" points="193.04,359.84,183.4604,357.5527,188.1243,360.754,184.9229,365.4178,193.04,359.84" style="stroke:#181818;stroke-width:1.0;"/></g><!--reverse link UC_LoginRegister to C--><g id="link_UC_LoginRegister_C"><path d="M333.1991,286.2595 C366.5991,291.4395 401.45,299.1 436.07,313 C448.63,318.04 461.46,325.91 471.74,333 " fill="none" id="UC_LoginRegister-backto-C" style="stroke:#181818;stroke-width:1.0;"/><polygon fill="#181818" points="327.27,285.34,335.5506,290.6721,332.2109,286.1063,336.7767,282.7666,327.27,285.34" style="stroke:#181818;stroke-width:1.0;"/></g><!--reverse link UC_UpdatePerformanceMetrics to C--><g id="link_UC_UpdatePerformanceMetrics_C"><path d="M376.2939,594.4443 C400.4339,587.7843 418.31,578.51 436.07,561 C482.74,514.99 492.31,435.1 493.57,387.63 " fill="none" id="UC_UpdatePerformanceMetrics-backto-C" style="stroke:#181818;stroke-width:1.0;"/><polygon fill="#181818" points="370.51,596.04,380.2497,597.5024,375.3299,594.7102,378.1221,589.7905,370.51,596.04" style="stroke:#181818;stroke-width:1.0;"/></g><!--reverse link UC_TrainingSessionManagement to C--><g id="link_UC_TrainingSessionManagement_C"><path d="M377.012,503.4418 C400.302,496.8318 417.63,488.37 436.07,473 C462.08,451.33 476.74,415.18 484.61,387.49 " fill="none" id="UC_TrainingSessionManagement-backto-C" style="stroke:#181818;stroke-width:1.0;"/><polygon fill="#181818" points="371.24,505.08,380.9902,506.4708,376.05,503.7149,378.8059,498.7747,371.24,505.08" style="stroke:#181818;stroke-width:1.0;"/></g><!--reverse link UC_ManageTeams to C--><g id="link_UC_ManageTeams_C"><path d="M342.2765,210.0634 C375.5265,213.5934 407.58,221.96 436.07,243 C458.41,259.49 472.85,287.46 481.57,310.53 " fill="none" id="UC_ManageTeams-backto-C" style="stroke:#181818;stroke-width:1.0;"/><polygon fill="#181818" points="336.31,209.43,344.8374,214.3578,341.2821,209.9579,345.682,206.4025,336.31,209.43" style="stroke:#181818;stroke-width:1.0;"/></g><!--reverse link UC_PerformanceAnalysis to C--><g id="link_UC_PerformanceAnalysis_C"><path d="M360.6735,139.1817 C389.7035,144.4517 413.98,153.87 436.07,174 C474.56,209.06 487.04,270.42 491.03,310.37 " fill="none" id="UC_PerformanceAnalysis-backto-C" style="stroke:#181818;stroke-width:1.0;"/><polygon fill="#181818" points="354.77,138.11,362.9108,143.6532,359.6896,139.0031,364.3397,135.7819,354.77,138.11" style="stroke:#181818;stroke-width:1.0;"/></g><!--reverse link UC_PerformanceProgressReport to C--><g id="link_UC_PerformanceProgressReport_C"><path d="M358.6179,410.3834 C385.9879,403.6834 409.87,396.28 436.07,385 C448.5,379.65 461.32,371.76 471.62,364.72 " fill="none" id="UC_PerformanceProgressReport-backto-C" style="stroke:#181818;stroke-width:1.0;"/><polygon fill="#181818" points="352.79,411.81,362.483,413.5553,357.6466,410.6211,360.5808,405.7848,352.79,411.81" style="stroke:#181818;stroke-width:1.0;"/></g><!--reverse link UC_FeedbackService to C--><g id="link_UC_FeedbackService_C"><path d="M349.36,349 C395.31,349 443.17,349 472.03,349 " fill="none" id="UC_FeedbackService-backto-C" style="stroke:#181818;stroke-width:1.0;"/><polygon fill="#181818" points="343.36,349,352.36,353,348.36,349,352.36,345,343.36,349" style="stroke:#181818;stroke-width:1.0;"/></g><!--SRC=[XPBTQiCm38Nl_HIYzsLlC0XXWy4AfZ_NGtDKnoonW-okbB5tNzB4cPCbB9UVpj6H55Tq3X0SiD5bWC8mgM2S5G9LS0nPKHiBw24RWApmHjmHEP3SeIexa0lHkT7gYc3pL3VkIcoiXYoK5GNoS3MXX2EryXVhkq2_WIy1xNVnfD2tjbUdZNtOapO-46-wlgVyxKuZd1fEJO61G1AV7TTe5S6E0XlbexbN98AXFkspGukQ-crezFPqW5F3aT7ORhq3UT-U37fjJJP4TvGCYb_1OlIHi9u5tz5Kd2wQMQnkteocf1PBwsR9JdCx6EofSHmMUaH5BvXsUYOgtb5zjDlpfr4KxP4FM7mBaS5s-_ZtBuvuUkCPxYymmlNfHiby0Y6NyqUy-Zxa_wboDJM7xQLPoaqAgyc9PlqD9QBqLWbUUW_BvTbQYMYss0y0]--></g></svg>